<svg width="502" height="339" viewBox="0 0 502 339" fill="none" xmlns="http://www.w3.org/2000/svg">
<g clip-path="url(#clip0)">
<path d="M320.792 339V295.89C320.792 295.89 337.596 326.453 320.792 339Z" fill="#F1F1F1"/>
<path d="M321.83 338.992L290.065 309.838C290.065 309.838 323.949 318.131 321.83 338.992Z" fill="#F1F1F1"/>
<path d="M502 13.7535H0.213989V251.803H502V13.7535Z" fill="#E5E5E5"/>
<path d="M487.652 34.1667H14.5627V232.779H487.652V34.1667Z" fill="white"/>
<path d="M501.786 0H0V21.3123H501.786V0Z" fill="#7586FF"/>
<path d="M15.8415 14.5668C18.0236 14.5668 19.7926 12.7983 19.7926 10.6167C19.7926 8.43508 18.0236 6.66653 15.8415 6.66653C13.6593 6.66653 11.8904 8.43508 11.8904 10.6167C11.8904 12.7983 13.6593 14.5668 15.8415 14.5668Z" fill="white"/>
<path d="M30.8385 14.5668C33.0207 14.5668 34.7896 12.7983 34.7896 10.6167C34.7896 8.43508 33.0207 6.66653 30.8385 6.66653C28.6564 6.66653 26.8875 8.43508 26.8875 10.6167C26.8875 12.7983 28.6564 14.5668 30.8385 14.5668Z" fill="white"/>
<path d="M45.8362 14.5668C48.0184 14.5668 49.7873 12.7983 49.7873 10.6167C49.7873 8.43508 48.0184 6.66653 45.8362 6.66653C43.6541 6.66653 41.8851 8.43508 41.8851 10.6167C41.8851 12.7983 43.6541 14.5668 45.8362 14.5668Z" fill="white"/>
<path d="M92.0705 79.3806C91.5539 79.3806 91.0584 79.5858 90.6931 79.951C90.3278 80.3163 90.1226 80.8116 90.1226 81.3281C90.1226 81.8446 90.3278 82.34 90.6931 82.7052C91.0584 83.0705 91.5539 83.2756 92.0705 83.2756H145.296C145.813 83.2756 146.308 83.0705 146.674 82.7052C147.039 82.34 147.244 81.8446 147.244 81.3281C147.244 80.8116 147.039 80.3163 146.674 79.951C146.308 79.5858 145.813 79.3806 145.296 79.3806H92.0705Z" fill="#A5A5A5"/>
<path d="M61.9686 106.198C61.452 106.198 60.9565 106.403 60.5912 106.768C60.2259 107.133 60.0206 107.629 60.0206 108.145C60.0206 108.662 60.2259 109.157 60.5912 109.522C60.9565 109.888 61.452 110.093 61.9686 110.093H175.398C175.915 110.093 176.41 109.888 176.776 109.522C177.141 109.157 177.346 108.662 177.346 108.145C177.346 107.629 177.141 107.133 176.776 106.768C176.41 106.403 175.915 106.198 175.398 106.198H61.9686Z" fill="#CCCCCC"/>
<path d="M61.9686 121.692C61.452 121.692 60.9565 121.897 60.5912 122.263C60.2259 122.628 60.0206 123.123 60.0206 123.64C60.0206 124.156 60.2259 124.652 60.5912 125.017C60.9565 125.382 61.452 125.587 61.9686 125.587H175.398C175.915 125.587 176.41 125.382 176.776 125.017C177.141 124.652 177.346 124.156 177.346 123.64C177.346 123.123 177.141 122.628 176.776 122.263C176.41 121.897 175.915 121.692 175.398 121.692H61.9686Z" fill="#CCCCCC"/>
<path d="M61.9686 137.186C61.452 137.186 60.9565 137.392 60.5912 137.757C60.2259 138.122 60.0206 138.618 60.0206 139.134C60.0206 139.651 60.2259 140.146 60.5912 140.511C60.9565 140.876 61.452 141.082 61.9686 141.082H175.398C175.915 141.082 176.41 140.876 176.776 140.511C177.141 140.146 177.346 139.651 177.346 139.134C177.346 138.618 177.141 138.122 176.776 137.757C176.41 137.392 175.915 137.186 175.398 137.186H61.9686Z" fill="#CCCCCC"/>
<path d="M61.9686 152.681C61.452 152.681 60.9565 152.886 60.5912 153.251C60.2259 153.617 60.0206 154.112 60.0206 154.628C60.0206 155.145 60.2259 155.64 60.5912 156.005C60.9565 156.371 61.452 156.576 61.9686 156.576H175.398C175.915 156.576 176.41 156.371 176.776 156.005C177.141 155.64 177.346 155.145 177.346 154.628C177.346 154.112 177.141 153.617 176.776 153.251C176.41 152.886 175.915 152.681 175.398 152.681H61.9686Z" fill="#CCCCCC"/>
<path d="M61.9686 168.175C61.452 168.175 60.9565 168.38 60.5912 168.746C60.2259 169.111 60.0206 169.606 60.0206 170.123C60.0206 170.639 60.2259 171.135 60.5912 171.5C60.9565 171.865 61.452 172.07 61.9686 172.07H175.398C175.915 172.07 176.41 171.865 176.776 171.5C177.141 171.135 177.346 170.639 177.346 170.123C177.346 169.606 177.141 169.111 176.776 168.746C176.41 168.38 175.915 168.175 175.398 168.175H61.9686Z" fill="#CCCCCC"/>
<path d="M61.9686 183.67C61.452 183.67 60.9565 183.875 60.5912 184.24C60.2259 184.605 60.0206 185.101 60.0206 185.617C60.0206 186.134 60.2259 186.629 60.5912 186.994C60.9565 187.359 61.452 187.565 61.9686 187.565H175.398C175.915 187.565 176.41 187.359 176.776 186.994C177.141 186.629 177.346 186.134 177.346 185.617C177.346 185.101 177.141 184.605 176.776 184.24C176.41 183.875 175.915 183.67 175.398 183.67H61.9686Z" fill="#CCCCCC"/>
<path d="M436.157 188.398H264.425C263.277 188.397 262.176 187.941 261.365 187.129C260.553 186.318 260.097 185.218 260.095 184.07V83.0753C260.097 81.9277 260.553 80.8275 261.365 80.0161C262.176 79.2046 263.277 78.7482 264.425 78.7469H436.157C437.305 78.7482 438.405 79.2046 439.217 80.0161C440.028 80.8275 440.485 81.9277 440.486 83.0753V184.07C440.485 185.218 440.028 186.318 439.217 187.129C438.405 187.941 437.305 188.397 436.157 188.398V188.398Z" fill="#F1F1F1"/>
<path d="M458.748 211.498H287.016C285.868 211.497 284.768 211.04 283.956 210.229C283.145 209.417 282.688 208.317 282.687 207.17V106.175C282.688 105.027 283.145 103.927 283.956 103.116C284.768 102.304 285.868 101.848 287.016 101.847H458.748C459.896 101.848 460.997 102.304 461.808 103.116C462.62 103.927 463.076 105.027 463.078 106.175V207.17C463.076 208.317 462.62 209.417 461.808 210.229C460.997 211.04 459.896 211.497 458.748 211.498V211.498Z" fill="white"/>
<path d="M458.748 212.971H287.016C285.478 212.969 284.003 212.357 282.915 211.27C281.827 210.182 281.215 208.708 281.214 207.17V106.175C281.215 104.637 281.827 103.163 282.915 102.075C284.003 100.987 285.478 100.376 287.016 100.374H458.748C460.287 100.376 461.762 100.987 462.849 102.075C463.937 103.162 464.549 104.637 464.551 106.175V207.17C464.549 208.708 463.937 210.182 462.849 211.27C461.762 212.357 460.287 212.969 458.748 212.971V212.971ZM287.016 103.32C286.259 103.32 285.533 103.622 284.998 104.157C284.462 104.692 284.161 105.418 284.16 106.175V207.17C284.161 207.927 284.462 208.652 284.998 209.188C285.533 209.723 286.259 210.024 287.016 210.025H458.748C459.506 210.024 460.232 209.723 460.767 209.188C461.302 208.652 461.604 207.927 461.605 207.17V106.175C461.604 105.418 461.302 104.692 460.767 104.157C460.232 103.622 459.506 103.32 458.748 103.32H287.016Z" fill="#3F3D56"/>
<path d="M372.651 184.997C380.881 184.997 387.553 178.327 387.553 170.098C387.553 161.87 380.881 155.2 372.651 155.2C364.421 155.2 357.749 161.87 357.749 170.098C357.749 178.327 364.421 184.997 372.651 184.997Z" fill="#FFC93C"/>
<path d="M401.399 155.765C400.521 154.835 399.467 154.09 398.297 153.572C397.128 153.055 395.867 152.777 394.588 152.754C393.309 152.732 392.039 152.965 390.852 153.439C389.664 153.914 388.584 154.622 387.674 155.52L339.344 203.839C333.153 210.057 326.69 200.546 322.561 196.711C312.63 186.892 301.903 205.304 295.228 210.577H450.537V208.6L401.399 155.765Z" fill="#7586FF"/>
<path d="M209.957 214.335L207.343 178.13L212.037 144.202L198.707 143.302L196.076 180.78L203.512 216.023C202.879 216.899 202.531 217.948 202.517 219.029C202.503 220.109 202.824 221.167 203.434 222.058C204.045 222.95 204.916 223.631 205.928 224.008C206.941 224.386 208.045 224.442 209.09 224.168C210.136 223.894 211.071 223.304 211.768 222.478C212.465 221.653 212.89 220.632 212.985 219.556C213.08 218.48 212.84 217.401 212.298 216.466C211.756 215.532 210.938 214.787 209.957 214.335V214.335Z" fill="#F2BDC5"/>
<path d="M197.006 148.178L200.136 134.635C200.736 132.042 202.305 129.776 204.521 128.301C206.738 126.827 209.435 126.256 212.059 126.705C214.683 127.154 217.036 128.59 218.636 130.718C220.235 132.846 220.96 135.504 220.663 138.149L218.939 153.453L197.006 148.178Z" fill="#CBCBCB"/>
<path d="M221.684 332.293H227.968L230.957 308.059L221.682 308.06L221.684 332.293Z" fill="#F2BDC5"/>
<path d="M220.08 330.242L232.456 330.241H232.457C234.548 330.241 236.554 331.072 238.033 332.551C239.512 334.029 240.343 336.035 240.343 338.126V338.382L220.081 338.383L220.08 330.242Z" fill="#2F2E41"/>
<path d="M252.99 332.087L259.032 330.357L255.232 306.238L246.315 308.791L252.99 332.087Z" fill="#F2BDC5"/>
<path d="M250.885 330.556L262.782 327.149L262.782 327.149C264.793 326.573 266.95 326.82 268.779 327.834C270.608 328.848 271.959 330.548 272.536 332.558L272.606 332.804L253.127 338.383L250.885 330.556Z" fill="#2F2E41"/>
<path d="M218.287 323.497L221.21 250.091L213.618 216.871C203.403 199.746 214.424 172.431 214.536 172.157L214.577 172.058L214.684 172.043L241.408 168.423L241.783 169.284C252.236 193.176 255.137 219.69 250.097 245.276L247.316 259.498L261.062 314.986L248.052 321.49L238.071 295.611L231.324 322.088L218.287 323.497Z" fill="#3B3B3B"/>
<path d="M211.017 178.966L202.299 153.427C196.879 143.885 200.317 135.413 204.155 129.987C208.3 124.127 208.549 120.841 208.604 120.805L208.648 120.776L220.102 120.429L230.703 131.198C231.37 130.938 237.003 144.815 236.525 145.513L243.929 169.441L211.017 178.966Z" fill="#CBCBCB"/>
<path d="M281.608 183.383L252.889 161.173L230.742 135.042L221.178 144.368L247.346 171.332L278.567 189.308C278.796 190.364 279.347 191.323 280.142 192.054C280.938 192.785 281.94 193.253 283.011 193.393C284.083 193.533 285.171 193.339 286.128 192.837C287.085 192.334 287.863 191.549 288.357 190.588C288.85 189.627 289.034 188.537 288.884 187.467C288.734 186.397 288.258 185.399 287.519 184.611C286.78 183.822 285.816 183.281 284.758 183.061C283.7 182.841 282.6 182.954 281.608 183.383V183.383Z" fill="#F2BDC5"/>
<path d="M218.46 153.817L210.458 142.451C208.926 140.274 208.284 137.594 208.664 134.959C209.045 132.325 210.419 129.936 212.504 128.281C214.59 126.626 217.229 125.832 219.882 126.06C222.535 126.289 224.999 127.523 226.771 129.509L237.023 141.003L218.46 153.817Z" fill="#CBCBCB"/>
<path d="M213.028 117.297C220.54 117.297 226.63 111.209 226.63 103.699C226.63 96.1883 220.54 90.1 213.028 90.1C205.516 90.1 199.426 96.1883 199.426 103.699C199.426 111.209 205.516 117.297 213.028 117.297Z" fill="#F2BDC5"/>
<path d="M226.859 96.7998H205.26V87.3874C210.001 85.5045 214.64 83.9032 217.444 87.3874C219.941 87.3874 222.336 88.3791 224.101 90.1443C225.867 91.9094 226.859 94.3035 226.859 96.7998V96.7998Z" fill="#3B3B3B"/>
<path d="M208.237 85.1305C188.448 84.5902 192.196 117.183 192.196 117.183C192.196 117.183 195.929 117.677 197.633 117.967L199.69 116.809L201.904 118.26C202.92 118.265 203.988 118.246 205.095 118.225L206.11 116.136L208.373 118.188C212.493 118.194 223.672 118.307 223.672 118.307C223.672 118.307 230.41 85.7359 208.237 85.1305Z" fill="#3B3B3B"/>
<path d="M368.485 338.749H141.379C141.221 338.749 141.069 338.686 140.958 338.574C140.846 338.462 140.783 338.311 140.783 338.153C140.783 337.995 140.846 337.843 140.958 337.731C141.069 337.619 141.221 337.557 141.379 337.557H368.485C368.643 337.557 368.795 337.619 368.907 337.731C369.019 337.843 369.081 337.995 369.081 338.153C369.081 338.311 369.019 338.462 368.907 338.574C368.795 338.686 368.643 338.749 368.485 338.749Z" fill="#CBCBCB"/>
</g>
<defs>
<clipPath id="clip0">
<rect width="502" height="339" fill="white"/>
</clipPath>
</defs>
</svg>
