<svg width="122" height="122" viewBox="0 0 122 122" fill="none" xmlns="http://www.w3.org/2000/svg">
<g clip-path="url(#clip0)">
<path d="M39.7714 59.1429C45.0477 59.1429 49.3401 54.8503 49.3401 49.574C49.3401 44.2978 45.0474 40.0051 39.7714 40.0051C34.4949 40.0051 30.2025 44.2978 30.2025 49.574C30.2025 54.8503 34.4949 59.1429 39.7714 59.1429V59.1429ZM39.7714 43.5793C43.0768 43.5793 45.7658 46.2686 45.7658 49.574C45.7658 52.8795 43.0768 55.5687 39.7714 55.5687C36.466 55.5687 33.7767 52.8795 33.7767 49.574C33.7767 46.2686 36.466 43.5793 39.7714 43.5793Z" fill="#A5A5A5"/>
<path d="M60.839 49.1279C65.9869 49.1279 70.1754 44.9396 70.1754 39.7915C70.1754 34.6435 65.9871 30.4552 60.839 30.4552C55.691 30.4552 51.5025 34.6435 51.5025 39.7915C51.5025 44.9396 55.691 49.1279 60.839 49.1279V49.1279ZM60.839 34.0294C64.0163 34.0294 66.6012 36.6143 66.6012 39.7915C66.6012 42.9688 64.0163 45.5537 60.839 45.5537C57.6618 45.5537 55.0767 42.9688 55.0767 39.7915C55.0767 36.6143 57.6618 34.0294 60.839 34.0294V34.0294Z" fill="#A5A5A5"/>
<path d="M43.6127 104.481C48.7605 104.481 52.949 100.292 52.949 95.1443C52.949 89.9963 48.7608 85.808 43.6127 85.808C38.4646 85.808 34.2761 89.9963 34.2761 95.1443C34.2761 100.292 38.4646 104.481 43.6127 104.481V104.481ZM43.6127 89.3824C46.7899 89.3824 49.3748 91.9673 49.3748 95.1446C49.3748 98.3218 46.7899 100.907 43.6127 100.907C40.4355 100.907 37.8503 98.3218 37.8503 95.1446C37.8503 91.9673 40.4355 89.3824 43.6127 89.3824Z" fill="#A5A5A5"/>
<path d="M65.5984 111.536C70.7462 111.536 74.9348 107.347 74.9348 102.199C74.9348 97.0512 70.7465 92.8629 65.5984 92.8629C60.4503 92.8629 56.2618 97.0512 56.2618 102.199C56.2618 107.347 60.4501 111.536 65.5984 111.536ZM65.5984 96.4371C68.7757 96.4371 71.3605 99.022 71.3605 102.199C71.3605 105.376 68.7757 107.961 65.5984 107.961C62.4212 107.961 59.8361 105.376 59.8361 102.199C59.8361 99.022 62.4212 96.4371 65.5984 96.4371Z" fill="#A5A5A5"/>
<path d="M20.2425 73.1337C20.2425 79.1414 25.13 84.029 31.1377 84.029C37.1455 84.029 42.033 79.1414 42.033 73.1337C42.033 67.126 37.1455 62.2384 31.1377 62.2384C25.13 62.2384 20.2425 67.126 20.2425 73.1337ZM31.1377 65.8126C35.1744 65.8126 38.4589 69.0968 38.4589 73.1337C38.4589 77.1706 35.1747 80.4548 31.1377 80.4548C27.1008 80.4548 23.8166 77.1706 23.8166 73.1337C23.8166 69.0968 27.1008 65.8126 31.1377 65.8126Z" fill="#A5A5A5"/>
<path d="M10.9948 71.2599C10.9948 98.2184 34.2191 118.71 61.3199 120.361C61.3568 120.363 61.3938 120.364 61.4302 120.364C62.3676 120.364 63.1546 119.634 63.2123 118.686C63.2724 117.701 62.5223 116.853 61.5372 116.793C35.1998 115.189 14.569 95.1885 14.569 71.2599C14.569 44.1488 40.3824 23.2296 69.881 25.9017C71.223 27.3001 72.8743 28.421 74.6023 29.2414C74.4605 29.8945 74.4853 30.5912 74.6568 31.221L78.1938 44.2303C77.3703 45.1927 77.0842 46.503 77.4128 47.7094L78.2546 50.8065C78.7667 52.693 80.6517 53.8996 82.5784 53.5655L84.2478 60.7947C78.2112 63.5446 74.9104 67.2272 74.9104 71.2601C74.9104 75.3073 78.2839 79.0511 84.4096 81.8013C86.5879 82.7792 88.4729 84.1195 90.0191 85.7882C91.9849 94.4177 92.5894 97.1557 94.0303 101.494C92.6964 107.312 88.7081 111.772 83.0249 113.773C78.6887 115.3 74.1757 116.279 69.6115 116.681C68.6284 116.767 67.9014 117.635 67.9881 118.618C68.0746 119.601 68.9451 120.327 69.9251 120.241C74.7869 119.813 79.594 118.771 84.212 117.145C89.4692 115.293 93.62 111.543 95.9608 106.707C98.3508 112.57 100.529 116.194 102.554 119.725C103.578 121.511 105.68 122.382 107.667 121.841C109.654 121.301 111.026 119.486 111.005 117.428C110.944 111.441 111.102 102.442 106.896 89.034C106.6 88.0923 105.598 87.5683 104.656 87.8638C103.714 88.1593 103.19 89.1622 103.485 90.1039C107.434 102.689 107.366 111.038 107.432 117.464C107.436 117.897 107.148 118.279 106.73 118.392C106.313 118.506 105.87 118.323 105.655 117.947C98.1358 104.835 97.1884 100.945 93.3979 84.5332L86.0341 52.6434L91.2856 51.2156L93.9471 59.6993L100.988 82.1435C101.284 83.0851 102.286 83.6091 103.228 83.3137C104.17 83.0182 104.694 82.0153 104.399 81.0736L97.8814 60.2998C107.728 56.3103 110.482 43.0863 102.052 35.7252C98.5981 32.7088 94.7258 30.1359 90.5407 28.0564L90.2483 26.9813C90.0699 26.3241 89.7399 25.7349 89.2907 25.2485C91.0947 22.5848 92.8947 18.465 91.5839 13.6437C90.3255 9.01605 87.232 7.23063 83.9571 5.3406C81.9708 4.19425 79.9168 3.00881 77.9353 1.03658C76.0098 -0.87894 72.8292 -0.0185161 72.138 2.61255C71.4279 5.31678 70.2565 7.37908 69.1242 9.37347C67.2364 12.6982 64.9372 16.5673 67.3724 22.1566C37.0362 20.8506 10.9948 42.854 10.9948 71.2599ZM88.6986 80.0704C87.8077 79.4993 86.8667 78.9865 85.8736 78.5407C81.1776 76.4322 78.4843 73.7785 78.4843 71.2599C78.4843 68.8623 80.8571 66.3992 85.0698 64.3557L88.6986 80.0704ZM99.7011 38.4177C106.028 43.9422 103.987 53.7959 96.8086 56.8817C94.9627 50.9981 95.4633 52.5934 94.7316 50.2609C96.6008 49.5453 97.5654 47.5421 97.0629 45.6926L96.221 42.5954C95.891 41.3828 94.9753 40.4009 93.7856 39.9908L91.8288 32.7941C94.6462 34.4232 97.2828 36.3058 99.7011 38.4177ZM92.4777 43.3646L92.4784 43.3644C92.5932 43.3334 92.7348 43.3963 92.7717 43.5331L93.6135 46.63C93.6483 46.7577 93.5726 46.8897 93.4451 46.9242C91.0537 47.5745 84.1777 49.4438 81.9975 50.0366C81.8726 50.0714 81.7387 49.998 81.7032 49.8682L80.8614 46.771C80.8244 46.6345 80.9181 46.507 81.0298 46.4768L92.4777 43.3646ZM90.1628 40.2901L81.4692 42.6536L78.1059 30.2829C78.0189 29.9648 78.2184 29.6333 78.5258 29.5495L86.0663 27.4993C86.3592 27.419 86.7071 27.5789 86.7995 27.9192C87.9056 31.9878 87.1298 29.1341 90.1628 40.2901ZM72.2324 11.1389C73.3956 9.09063 74.7104 6.7748 75.5475 3.7022C77.8169 5.92415 80.1277 7.25755 82.1707 8.43679C85.1273 10.1431 87.2634 11.3757 88.135 14.582C89.2004 18.4998 87.3664 21.9157 85.8471 23.9213C85.6169 23.942 85.3474 23.9911 85.1282 24.0507L77.5877 26.1009C77.3577 26.1633 77.0942 26.2626 76.9031 26.353C73.7418 25.0555 71.1046 22.7835 70.2005 19.4581C69.3289 16.2519 70.5468 14.1071 72.2324 11.1389Z" fill="#A5A5A5"/>
</g>
<defs>
<clipPath id="clip0">
<rect width="122" height="122" fill="white"/>
</clipPath>
</defs>
</svg>
