<svg width="122" height="128" viewBox="0 0 122 128" fill="none" xmlns="http://www.w3.org/2000/svg">
<path d="M83.4802 74.9122V95.34C83.4802 96.3777 84.4556 97.2187 85.6585 97.2187C86.8615 97.2187 87.8369 96.3777 87.8369 95.34V73.5542C87.8369 72.723 87.2035 71.9902 86.2794 71.7535C81.3464 70.488 76.9086 67.8315 73.7835 64.2725C70.5553 60.5965 68.8488 56.2085 68.8488 51.5835C68.8488 39.981 79.7933 30.5417 93.2461 30.5417C95.7592 30.5417 98.219 30.8717 100.554 31.5022C99.8965 33.666 98.864 35.7157 97.5091 37.5902C96.2633 37.0822 94.8722 36.7967 93.4052 36.7967C88.0925 36.7967 83.77 40.5245 83.77 45.1067C83.77 49.6887 88.0922 53.4165 93.4052 53.4165C98.7182 53.4165 103.04 49.6887 103.04 45.1067C103.04 43.1542 102.254 41.3585 100.942 39.9385C102.55 37.793 103.789 35.442 104.606 32.9567C107.453 34.2495 110.011 36.0325 112.114 38.2432C112.878 39.0452 114.25 39.1615 115.18 38.5032C116.11 37.845 116.245 36.6612 115.482 35.859C112.728 32.9655 109.315 30.6912 105.507 29.1432C105.664 28.0705 105.749 26.9822 105.749 25.8812C105.749 11.6105 92.2872 0 75.7401 0C59.1931 0 45.7314 11.6105 45.7314 25.8815C45.7314 29.7655 46.7537 33.6167 48.6915 37.0947C42.6121 44.8705 42.0741 55.132 47.6103 63.3827L27.6228 80.6212C26.772 81.3552 26.772 82.5445 27.6228 83.2785C28.4736 84.012 29.8527 84.012 30.7035 83.2785L51.9122 64.9867C52.6461 64.3537 52.7604 63.362 52.185 62.617C45.7751 54.314 47.0685 43.16 55.2602 36.0952C61.2955 30.89 70.0211 28.8577 78.1278 30.4985C75.2558 32.0357 72.7186 33.9957 70.6364 36.2787C66.7664 36.6445 63.159 38.1282 60.3882 40.5177C53.7033 46.2832 53.7033 55.6642 60.3882 61.43C62.8906 63.588 66.0116 64.9892 69.4639 65.5202C69.7367 65.865 70.0161 66.2067 70.3103 66.5417C72.058 68.5315 74.1569 70.2792 76.4993 71.729C70.4559 72.5907 64.1828 71.475 59.0096 68.504C58.1455 68.008 56.9956 68.106 56.2619 68.739L36.2982 85.957C35.4475 86.6907 35.4475 87.8802 36.2982 88.614L41.017 92.684C42.2104 93.6715 42.2104 95.4482 41.0167 96.4357C39.8717 97.4647 37.8113 97.465 36.6666 96.4355L31.9479 92.3657C31.0971 91.6322 29.718 91.6322 28.8672 92.3657L23.216 97.2397C22.3721 97.9395 22.3721 99.197 23.216 99.897L27.9344 103.966C29.1339 105.001 29.1339 106.684 27.9347 107.718C26.7352 108.753 24.7838 108.752 23.5847 107.718L18.8659 103.648C18.0152 102.915 16.636 102.915 15.7852 103.648L9.60438 108.979C8.40491 110.013 6.45353 110.013 5.25435 108.979C4.05488 107.945 4.05488 106.261 5.25435 105.227L24.5421 88.5922C25.3929 87.8582 25.3929 86.669 24.5421 85.935C23.6913 85.2015 22.3121 85.2015 21.4614 85.935L2.17335 102.57C-0.72445 105.069 -0.72445 109.136 2.17335 111.636C5.07144 114.135 9.78671 114.135 12.6848 111.636L17.3253 107.634L20.504 110.375C23.4018 112.874 28.1173 112.875 31.0154 110.375C33.9132 107.876 33.9132 103.809 31.0154 101.309L27.837 98.5682L30.4076 96.3512L33.5859 99.0922C36.3527 101.579 41.3309 101.579 44.0977 99.0925C46.981 96.7065 46.9813 92.4125 44.0977 90.0267L40.9193 87.2852L58.1217 72.4487C65.3264 76.0432 74.0557 76.765 81.9676 74.392C82.4665 74.5767 82.9697 74.7527 83.4802 74.9122V74.9122ZM93.4052 40.5542C93.8806 40.5542 94.3394 40.6137 94.778 40.7157C92.8959 42.513 90.6605 44.0527 88.1354 45.254C88.1337 45.2045 88.1267 45.1562 88.1267 45.1065C88.1267 42.5965 90.4946 40.5542 93.4052 40.5542V40.5542ZM98.6837 45.107C98.6837 47.617 96.3158 49.6592 93.4052 49.6592C92.1379 49.6592 90.9738 49.2715 90.063 48.627C93.1478 47.1827 95.8708 45.31 98.1428 43.112C98.4854 43.7152 98.6837 44.3907 98.6837 45.107V45.107ZM52.1795 33.438C52.0435 33.5552 51.9145 33.6765 51.7818 33.7957C50.669 31.2827 50.0878 28.5917 50.0878 25.8817C50.0878 13.6825 61.5952 3.75775 75.7398 3.75775C89.8845 3.75775 101.392 13.6825 101.392 25.8817C101.392 26.5167 101.357 27.1465 101.295 27.7712C98.7121 27.1237 96.0065 26.7845 93.2455 26.7845C89.9369 26.7845 86.758 27.2705 83.797 28.1615C73.0673 24.2165 60.4697 26.2877 52.1795 33.438V33.438ZM67.3004 40.9002C66.3945 42.5297 65.6896 44.2572 65.2125 46.0587C64.1292 45.6377 63.0796 45.155 62.072 44.6065C62.4842 44.1042 62.9474 43.624 63.4686 43.1745C64.5861 42.2107 65.8861 41.4445 67.3004 40.9002ZM63.4689 58.7725C60.098 55.8652 59.0093 51.7257 60.1966 48.0197C61.5903 48.7492 63.048 49.378 64.56 49.9015C64.5165 50.4575 64.4924 51.0182 64.4924 51.5837C64.4924 54.7592 65.18 57.8387 66.5027 60.7145C65.3983 60.2075 64.3788 59.5572 63.4689 58.7725Z" fill="#A5A5A5"/>
<path d="M120.19 42.9068C119.769 41.9345 118.514 41.4415 117.387 41.8045C116.26 42.1675 115.688 43.2498 116.109 44.222C117.127 46.5722 117.643 49.0492 117.643 51.5837C117.643 60.7185 110.883 68.7585 100.821 71.5902C99.9244 71.8425 99.318 72.5632 99.318 73.3762V83.808L93.1473 87.9352C92.0345 88.6405 92.0348 90.1992 93.1473 90.9045L97.9417 94.1112L93.147 97.3182C92.0345 98.0235 92.0345 99.5822 93.147 100.287L97.9414 103.494L93.147 106.701C92.0342 107.406 92.0345 108.965 93.147 109.67L99.3177 113.797V118.306L93.3232 123.427L87.8369 118.35V102.855C87.8369 101.817 86.8615 100.976 85.6586 100.976C84.4556 100.976 83.4802 101.817 83.4802 102.855V119.09C83.4802 119.565 83.6892 120.023 84.0649 120.371L91.6675 127.407C92.4647 128.175 93.9618 128.201 94.7943 127.461L103.03 120.424C103.443 120.072 103.675 119.591 103.675 119.09V112.877C103.675 112.297 103.364 111.749 102.831 111.393L98.0371 108.186L102.831 104.979C103.944 104.274 103.944 102.715 102.831 102.01L98.0371 98.8032L102.831 95.5962C103.944 94.891 103.944 93.3322 102.831 92.627L98.0371 89.4202L102.831 86.2135C103.364 85.8575 103.675 85.3095 103.675 84.7287V74.7C114.7 71.0105 122 61.8882 122 51.5837C122 48.5987 121.391 45.6792 120.19 42.9068V42.9068Z" fill="#A5A5A5"/>
</svg>
