<svg width="122" height="122" viewBox="0 0 122 122" fill="none" xmlns="http://www.w3.org/2000/svg">
<path d="M75.2333 71.1666H72.9967C72.1554 71.1682 71.4028 70.6433 71.1138 69.8531C70.8657 69.2024 70.5994 68.566 70.3127 67.9357C69.9563 67.1691 70.119 66.2615 70.7193 65.6665L72.3135 64.0703C74.68 61.6829 74.6757 57.8328 72.3033 55.451L66.5571 49.7048C64.1723 47.3339 60.3206 47.3339 57.9358 49.7048L56.3416 51.2969C55.7454 51.8949 54.8393 52.0574 54.0724 51.7036C53.4421 51.4169 52.8057 51.1505 52.153 50.8902C51.3587 50.6033 50.8303 49.8479 50.8333 49.0033V46.7666C50.8333 43.3976 48.1023 40.6666 44.7333 40.6666H36.6C33.231 40.6666 30.5 43.3976 30.5 46.7666V49.0033C30.5015 49.8446 29.9767 50.5972 29.1865 50.8862C28.5358 51.1342 27.8994 51.4006 27.269 51.6873C26.5022 52.0419 25.5959 51.8794 24.9998 51.2806L23.4037 49.6865C21.0191 47.3172 17.169 47.3172 14.7844 49.6865L9.03817 55.451C6.6673 57.8358 6.6673 61.6875 9.03817 64.0723L10.6303 65.6665C11.2306 66.2615 11.3933 67.1691 11.0369 67.9357C10.7502 68.566 10.4839 69.2024 10.2338 69.8551C9.94275 70.6499 9.18304 71.1753 8.33667 71.1666H6.1C2.73102 71.1666 0 73.8976 0 77.2666V85.4C0 88.7689 2.73102 91.5 6.1 91.5H8.33667C9.17796 91.4984 9.93055 92.0233 10.2195 92.8135C10.4676 93.4642 10.734 94.1006 11.0207 94.7309C11.377 95.4975 11.2143 96.4051 10.614 97.0001L9.01987 98.5963C6.65052 100.981 6.65052 104.831 9.01987 107.216L14.7661 112.962C17.1509 115.333 21.0026 115.333 23.3874 112.962L24.9815 111.37C25.5778 110.772 26.4839 110.609 27.2507 110.963C27.8811 111.25 28.5175 111.516 29.1702 111.776C29.9685 112.06 30.5015 112.816 30.5 113.663V115.9C30.5 119.269 33.231 122 36.6 122H44.7333C48.1023 122 50.8333 119.269 50.8333 115.9V113.663C50.8318 112.822 51.3567 112.069 52.1469 111.78C52.7975 111.532 53.434 111.266 54.0643 110.979C54.8311 110.625 55.7375 110.787 56.3335 111.386L57.9297 112.98C60.3176 115.346 64.1667 115.341 66.549 112.97L72.2952 107.224C74.666 104.839 74.666 100.987 72.2952 98.6024L70.7031 97.0083C70.1027 96.4133 69.9401 95.5056 70.2964 94.7391C70.5831 94.1087 70.8495 93.4723 71.1097 92.8196C71.3967 92.0253 72.1521 91.4969 72.9967 91.5H75.2333C78.6023 91.5 81.3333 88.7689 81.3333 85.4V77.2666C81.3333 73.8976 78.6023 71.1666 75.2333 71.1666ZM77.2667 85.4C77.2667 86.5229 76.3562 87.4333 75.2333 87.4333H72.9967C70.469 87.4427 68.2069 89.0051 67.3033 91.3658C67.0878 91.9351 66.8547 92.4955 66.6039 93.0473C65.5585 95.3552 66.0434 98.0686 67.8239 99.8712L69.4139 101.463C70.2085 102.257 70.2092 103.544 69.4155 104.339C69.4149 104.339 69.4144 104.34 69.4139 104.34L63.6677 110.087C62.8737 110.88 61.5866 110.88 60.7926 110.087L59.1985 108.495C57.3967 106.713 54.6822 106.227 52.3746 107.275C51.8236 107.525 51.2624 107.758 50.6971 107.974C48.3382 108.877 46.7768 111.137 46.7667 113.663V115.9C46.7667 117.023 45.8562 117.933 44.7333 117.933H36.6C35.4771 117.933 34.5667 117.023 34.5667 115.9V113.663C34.5573 111.136 32.9949 108.874 30.6342 107.97C30.0649 107.754 29.5044 107.521 28.9526 107.27C26.6448 106.226 23.9316 106.711 22.1288 108.49L20.5367 110.081C19.7432 110.875 18.4555 110.876 17.661 110.082C17.6605 110.082 17.66 110.081 17.6595 110.081L11.9133 104.34C11.1195 103.546 11.1195 102.259 11.9133 101.465L13.5054 99.8712C15.2858 98.0686 15.7708 95.3552 14.7254 93.0473C14.4753 92.4963 14.2415 91.9351 14.0259 91.3698C13.1247 89.0084 10.8641 87.4445 8.33667 87.4333H6.1C4.97709 87.4333 4.06667 86.5229 4.06667 85.4V77.2666C4.06667 76.1437 4.97709 75.2333 6.1 75.2333H8.33667C10.8644 75.2239 13.1264 73.6615 14.03 71.3008C14.2455 70.7315 14.4786 70.1711 14.7295 69.6193C15.7749 67.3114 15.2896 64.5979 13.5095 62.7954L11.9113 61.2033C11.1167 60.4098 11.116 59.1222 11.9097 58.3276C11.9103 58.3271 11.9108 58.3266 11.9113 58.3261L17.6575 52.5799C18.4515 51.7862 19.7386 51.7862 20.5326 52.5799L22.1267 54.172C23.9285 55.954 26.643 56.4392 28.9506 55.392C29.5016 55.1419 30.0628 54.9081 30.6281 54.6926C32.9903 53.792 34.5552 51.5312 34.5667 49.0033V46.7666C34.5667 45.6437 35.4771 44.7333 36.6 44.7333H44.7333C45.8562 44.7333 46.7667 45.6437 46.7667 46.7666V49.0033C46.7761 51.531 48.3384 53.7931 50.6991 54.6966C51.2685 54.9122 51.8289 55.1452 52.3807 55.3961C54.6883 56.4433 57.4028 55.9581 59.2046 54.1761L60.7967 52.586C61.5937 51.7976 62.8768 51.7976 63.6738 52.586L69.42 58.3322C70.2138 59.1262 70.2138 60.4133 69.42 61.2074L67.8279 62.8015C66.0478 64.604 65.5625 67.3175 66.6079 69.6254C66.858 70.1764 67.0919 70.7376 67.3074 71.3029C68.2107 73.6618 70.4708 75.2231 72.9967 75.2333H75.2333C76.3562 75.2333 77.2667 76.1437 77.2667 77.2666V85.4V85.4Z" fill="#DFDFDF"/>
<path d="M58.926 80.52C58.9057 80.032 58.8711 79.546 58.8122 79.0621C58.7471 78.5416 58.6698 78.0251 58.5621 77.5188C58.4909 77.1874 58.3974 76.86 58.3079 76.5306C58.194 76.1117 58.0659 75.699 57.9236 75.2923C57.824 75.0097 57.7203 74.7291 57.6145 74.4505C57.3527 73.7993 57.0533 73.1637 56.7178 72.5473C56.6914 72.5005 56.6751 72.4497 56.6487 72.4029C56.1198 71.4615 55.5072 70.5691 54.8187 69.7372C54.7597 69.664 54.6926 69.5949 54.6316 69.5237C54.351 69.1923 54.0623 68.871 53.7593 68.564C53.6007 68.3993 53.434 68.2448 53.2673 68.0862C53.0639 67.8971 52.8606 67.71 52.6573 67.5311C52.4105 67.3168 52.1591 67.1094 51.9029 66.9089L51.5694 66.6608C48.4231 64.3042 44.5976 63.0313 40.6667 63.0333C40.4634 63.0333 40.26 63.0638 40.0567 63.072C39.6236 63.0842 39.1885 63.1086 38.7513 63.1533C38.5215 63.1777 38.2897 63.2041 38.06 63.2367C37.3971 63.3238 36.7393 63.4469 36.0897 63.6047C26.2989 66.1347 20.4129 76.1229 22.9429 85.9137C24.6102 92.3654 29.6508 97.402 36.1039 99.064C36.1364 99.064 36.171 99.0742 36.2056 99.0823C36.9078 99.2574 37.6192 99.3934 38.3365 99.489C38.8103 99.5479 39.284 99.5601 39.7598 99.5825C40.077 99.5988 40.3698 99.6455 40.7013 99.6455C41.2808 99.6455 41.8826 99.6069 42.4967 99.5459C42.5618 99.5459 42.6268 99.5276 42.7 99.5195C43.1941 99.4646 43.6943 99.3914 44.2047 99.2897C44.408 99.2511 44.5971 99.2002 44.7923 99.1555C45.1502 99.0721 45.506 98.9847 45.872 98.8769C46.1567 98.7915 46.4332 98.6919 46.7118 98.5943C46.9904 98.4967 47.2791 98.391 47.5678 98.2812C47.8566 98.1714 48.0985 98.0453 48.3608 97.9233C48.7024 97.7667 49.042 97.6122 49.3775 97.4292H49.3897C51.2873 96.4133 53.04 95.1476 54.6011 93.6655C55.0228 93.2721 55.3895 92.8232 55.691 92.3316C57.278 89.7874 58.3206 86.942 58.7532 83.9746C58.8101 83.5822 58.861 83.1898 58.8915 82.7892C58.9199 82.4212 58.9403 82.0552 58.9484 81.6892C58.9484 81.5733 58.9647 81.4635 58.9647 81.3476C58.9667 81.0609 58.9382 80.7965 58.926 80.52ZM54.8736 81.8518C54.8736 82.0206 54.8594 82.1894 54.8492 82.3561C54.8126 82.8482 54.7496 83.3402 54.6662 83.8343C53.9062 88.0619 51.2815 91.7219 47.5211 93.7977C47.2689 93.9298 47.0209 94.0539 46.7728 94.1677L46.604 94.2491C45.4227 94.7854 44.1757 95.1628 42.8952 95.3715C42.8058 95.3857 42.7143 95.402 42.6228 95.4142C42.3686 95.4508 42.1185 95.4813 41.8704 95.5036C41.5431 95.5321 41.2137 95.5484 40.8782 95.5545C40.7358 95.5545 40.5955 95.5545 40.4532 95.5545C39.9721 95.5489 39.4917 95.5191 39.0136 95.465L38.7696 95.4365C38.2104 95.3633 37.6558 95.2589 37.1084 95.1234C29.493 93.1742 24.8997 85.4206 26.8487 77.8052C28.1365 72.7733 32.0634 68.8423 37.0941 67.5494V67.5473C38.2623 67.2528 39.4619 67.1023 40.6667 67.1C41.248 67.1033 41.8287 67.1427 42.4052 67.2179C42.5597 67.2362 42.7122 67.2647 42.8647 67.2871C43.3039 67.3562 43.7391 67.4436 44.1681 67.5534C44.3084 67.59 44.4487 67.6226 44.587 67.6612C45.6682 67.9733 46.709 68.4115 47.6878 68.9666C47.8444 69.0581 47.9969 69.1537 48.1514 69.2492C48.4727 69.4526 48.7838 69.6559 49.0908 69.8877C49.2555 70.0077 49.4222 70.1256 49.5808 70.2537C49.9799 70.5724 50.3619 70.9117 50.7256 71.2704C50.87 71.4168 51.0021 71.5774 51.1424 71.7299C51.3763 71.9841 51.604 72.2443 51.8216 72.5188C51.972 72.7079 52.1164 72.9031 52.2587 73.1004C52.4621 73.3932 52.6654 73.6982 52.8484 74.0072C52.9501 74.176 53.0517 74.3407 53.1554 74.5135C53.4177 74.9962 53.6513 75.4939 53.8549 76.004C53.9362 76.2073 54.0054 76.4106 54.0786 76.614C54.2107 76.9881 54.3246 77.3663 54.4242 77.7486C54.4751 77.9519 54.532 78.1329 54.5747 78.3301C54.6934 78.8796 54.7795 79.4357 54.8329 79.9954C54.8451 80.1438 54.8451 80.2943 54.8553 80.4427C54.8838 80.9104 54.8919 81.3801 54.8736 81.8518Z" fill="#DFDFDF"/>
<path d="M115.9 42.7H109.505C108.652 42.7086 107.89 42.1716 107.61 41.3661C106.98 39.4774 106.216 37.6352 105.327 35.8538C104.949 35.0844 105.106 34.1595 105.717 33.5581L110.251 29.0177C112.631 26.6359 112.631 22.7761 110.251 20.3943L101.606 11.7628C99.2239 9.38282 95.3641 9.38282 92.9823 11.7628L88.45 16.2931C87.8494 16.9036 86.9258 17.0617 86.1564 16.6855C84.3747 15.7911 82.532 15.024 80.642 14.3899C79.8332 14.1131 79.2924 13.3496 79.3 12.4948V6.1C79.3 2.73102 76.569 0 73.2 0H61C57.631 0 54.9 2.73102 54.9 6.1V12.4948C54.9086 13.3476 54.3718 14.1103 53.5661 14.3899C51.6772 15.0238 49.835 15.7904 48.0538 16.6835C47.2844 17.0625 46.359 16.9051 45.7581 16.2931L41.2177 11.7588C38.8331 9.38561 34.9789 9.38561 32.5943 11.7588L23.9649 20.3882C21.5836 22.7703 21.5836 26.6316 23.9649 29.0136L30.6322 35.6931C31.4386 36.4744 32.726 36.4541 33.5073 35.6474C34.2695 34.8605 34.2713 33.611 33.5114 32.8221L26.84 26.1446C26.0462 25.3506 26.0462 24.0635 26.84 23.2695L35.4695 14.64C36.2635 13.8462 37.5506 13.8462 38.3446 14.64L42.8871 19.1743C44.7249 21.0231 47.5411 21.4852 49.8736 20.3211C51.4842 19.5147 53.1495 18.8223 54.8573 18.2492C57.3222 17.4147 58.9773 15.0972 58.9667 12.4948V6.1C58.9667 4.97709 59.8771 4.06667 61 4.06667H73.2C74.3229 4.06667 75.2333 4.97709 75.2333 6.1V12.4948C75.2229 15.0967 76.878 17.4135 79.3427 18.2471C81.0512 18.8205 82.7173 19.5134 84.3284 20.3211C86.6614 21.4791 89.4738 21.0165 91.3129 19.1723L95.8554 14.64C96.6494 13.8462 97.9365 13.8462 98.7305 14.64L107.36 23.2715C108.152 24.0653 108.152 25.3508 107.36 26.1446L102.826 30.6871C100.979 32.526 100.517 35.3409 101.679 37.6736C102.485 39.2843 103.178 40.9496 103.751 42.6573C104.585 45.1227 106.902 46.7778 109.505 46.7667H115.9C117.023 46.7667 117.933 47.6771 117.933 48.8V61C117.933 62.1229 117.023 63.0333 115.9 63.0333H109.505C106.903 63.0229 104.587 64.678 103.753 67.1427C103.18 68.8512 102.487 70.5173 101.679 72.1284C100.519 74.4612 100.982 77.2745 102.828 79.1129L107.362 83.6554C108.156 84.4494 108.156 85.7365 107.362 86.5305L98.7285 95.16C97.9347 95.9525 96.6491 95.9525 95.8554 95.16L89.1739 88.4927C88.3925 87.686 87.1052 87.6656 86.2987 88.447C85.492 89.2283 85.4717 90.5156 86.253 91.3221C86.2692 91.3389 86.286 91.3556 86.3028 91.3719L92.9823 98.0392C95.3641 100.419 99.2239 100.419 101.606 98.0392L110.235 89.4118C112.616 87.0297 112.616 83.1684 110.235 80.7864L105.707 76.25C105.097 75.6491 104.939 74.7258 105.314 73.9564C106.209 72.1747 106.976 70.332 107.61 68.442C107.887 67.6332 108.65 67.0924 109.505 67.1H115.9C119.269 67.1 122 64.369 122 61V48.8C122 45.431 119.269 42.7 115.9 42.7Z" fill="#DFDFDF"/>
<path d="M85.7904 36.2095C75.4616 25.9023 58.7384 25.9023 48.4096 36.2095C47.6296 37.0173 47.6519 38.3046 48.4597 39.0847C49.2476 39.8456 50.4968 39.8456 51.2848 39.0847C59.9607 30.2915 74.1221 30.1967 82.9153 38.8727C91.7085 47.5487 91.8033 61.7101 83.1273 70.5032C83.0571 70.5744 82.9865 70.6451 82.9153 70.7152C82.1076 71.4955 82.0852 72.7826 82.8655 73.5903C83.6458 74.3981 84.9329 74.4205 85.7406 73.6402C85.7574 73.6239 85.7742 73.6071 85.7904 73.5903C96.0977 63.2615 96.0977 46.5384 85.7904 36.2095Z" fill="#DFDFDF"/>
</svg>
