<svg width="129" height="19" viewBox="0 0 129 19" fill="none" xmlns="http://www.w3.org/2000/svg">
<path d="M3.98631 0.302711H8.70131C10.3113 0.302711 11.5338 0.498975 12.3688 0.891504C13.2038 1.28403 13.7302 1.90302 13.9481 2.74846C14.184 3.57881 14.1773 4.69601 13.928 6.10005L12.746 12.7579C12.494 14.1771 12.1013 15.3094 11.5679 16.1548C11.0498 17.0003 10.3022 17.6268 9.32518 18.0344C8.36347 18.442 7.08529 18.6459 5.49062 18.6459H0.729621L3.98631 0.302711ZM5.98918 15.8378C6.58718 15.8378 7.03892 15.7547 7.3444 15.5887C7.6679 15.4075 7.89613 15.1584 8.02908 14.8414C8.16472 14.5092 8.28882 14.0261 8.4014 13.392L9.82067 5.39803C9.92521 4.80924 9.95828 4.36387 9.91989 4.06192C9.89951 3.74488 9.75706 3.51087 9.49253 3.3599C9.24333 3.20893 8.81973 3.13344 8.22173 3.13344H7.60073L5.34518 15.8378H5.98918ZM20.6829 0.302711H25.3979C27.0079 0.302711 28.2304 0.498975 29.0653 0.891504C29.9003 1.28403 30.4267 1.90302 30.6446 2.74846C30.8806 3.57881 30.8739 4.69601 30.6246 6.10005L29.4425 12.7579C29.1906 14.1771 28.7979 15.3094 28.2644 16.1548C27.7463 17.0003 26.9988 17.6268 26.0217 18.0344C25.06 18.442 23.7818 18.6459 22.1872 18.6459H17.4262L20.6829 0.302711ZM22.6857 15.8378C23.2837 15.8378 23.7355 15.7547 24.041 15.5887C24.3645 15.4075 24.5927 15.1584 24.7256 14.8414C24.8613 14.5092 24.9854 14.0261 25.098 13.392L26.5172 5.39803C26.6218 4.80924 26.6548 4.36387 26.6164 4.06192C26.5961 3.74488 26.4536 3.51087 26.1891 3.3599C25.9399 3.20893 25.5163 3.13344 24.9183 3.13344H24.2973L22.0417 15.8378H22.6857Z" fill="#CAD1FF"/>
<path d="M48.1243 18.9176C46.3456 18.9176 45.101 18.4571 44.3905 17.5362C43.698 16.6002 43.5007 15.1207 43.7986 13.0976L47.41 12.5768C47.219 13.7393 47.2082 14.5771 47.3777 15.0905C47.5653 15.5887 47.9274 15.8378 48.4641 15.8378C49.1541 15.8378 49.5781 15.3924 49.7363 14.5017C49.8623 13.7921 49.8021 13.1807 49.5559 12.6673C49.3251 12.154 48.9092 11.603 48.3085 11.0142L46.9437 9.6328C46.2643 8.96853 45.768 8.2665 45.4546 7.52674C45.1593 6.77188 45.1028 5.88114 45.2851 4.85453C45.5585 3.31461 46.2289 2.12948 47.2963 1.29913C48.379 0.468781 49.7331 0.0536072 51.3584 0.0536072C53.1218 0.0536072 54.228 0.559365 54.677 1.57088C55.1415 2.58239 55.268 3.81282 55.0567 5.26215L51.4383 5.69243C51.5765 4.7413 51.6051 4.06192 51.5241 3.6543C51.4612 3.23158 51.1844 3.02021 50.6937 3.02021C50.3411 3.02021 50.0383 3.17119 49.7853 3.47313C49.5504 3.75998 49.4008 4.08457 49.3364 4.4469C49.2265 5.06589 49.2721 5.58674 49.473 6.00947C49.6893 6.43219 50.0635 6.9153 50.5957 7.4588L51.8995 8.79491C52.6828 9.56487 53.251 10.3801 53.6042 11.2407C53.9575 12.1012 54.0295 13.1203 53.8205 14.2979C53.6677 15.1584 53.3213 15.9434 52.7813 16.653C52.2594 17.3475 51.5942 17.8985 50.7858 18.3062C49.9774 18.7138 49.0903 18.9176 48.1243 18.9176ZM62.6629 3.31461H59.8569L60.3917 0.302711H70.1207L69.5859 3.31461H66.8029L64.081 18.6459H59.941L62.6629 3.31461ZM77.0579 18.9176C75.6626 18.9176 74.5974 18.6987 73.8625 18.2609C73.1302 17.808 72.6718 17.1512 72.4873 16.2907C72.3208 15.415 72.3568 14.3054 72.5953 12.9617L74.8428 0.302711H78.9138L76.5578 13.5732C76.4264 14.3129 76.4139 14.9017 76.5202 15.3396C76.6418 15.7774 76.9939 15.9963 77.5766 15.9963C78.1592 15.9963 78.5814 15.7774 78.8432 15.3396C79.1049 14.9017 79.3014 14.3129 79.4328 13.5732L81.7888 0.302711H85.8828L83.6353 12.9617C83.3968 14.3054 83.0311 15.415 82.5383 16.2907C82.0482 17.1512 81.3566 17.808 80.4635 18.2609C79.5884 18.6987 78.4532 18.9176 77.0579 18.9176ZM91.7223 0.302711H96.4373C98.0473 0.302711 99.2698 0.498975 100.105 0.891504C100.94 1.28403 101.466 1.90302 101.684 2.74846C101.92 3.57881 101.913 4.69601 101.664 6.10005L100.482 12.7579C100.23 14.1771 99.8373 15.3094 99.3039 16.1548C98.7858 17.0003 98.0382 17.6268 97.0612 18.0344C96.0995 18.442 94.8213 18.6459 93.2266 18.6459H88.4656L91.7223 0.302711ZM93.7252 15.8378C94.3232 15.8378 94.7749 15.7547 95.0804 15.5887C95.4039 15.4075 95.6321 15.1584 95.7651 14.8414C95.9007 14.5092 96.0248 14.0261 96.1374 13.392L97.5567 5.39803C97.6612 4.80924 97.6943 4.36387 97.6559 4.06192C97.6355 3.74488 97.4931 3.51087 97.2285 3.3599C96.9793 3.20893 96.5557 3.13344 95.9577 3.13344H95.3367L93.0812 15.8378H93.7252ZM108.442 0.302711H112.559L109.302 18.6459H105.185L108.442 0.302711ZM120.588 18.9176C118.579 18.9176 117.235 18.4118 116.556 17.4003C115.88 16.3737 115.719 14.864 116.072 12.8712L117.283 6.05476C117.636 4.06192 118.331 2.5673 119.367 1.57088C120.405 0.559365 121.928 0.0536072 123.937 0.0536072C125.961 0.0536072 127.313 0.559365 127.992 1.57088C128.686 2.58239 128.858 4.07702 128.507 6.05476L127.296 12.8712C126.943 14.864 126.238 16.3737 125.181 17.4003C124.143 18.4118 122.612 18.9176 120.588 18.9176ZM121.099 16.0416C121.681 16.0416 122.098 15.8529 122.349 15.4754C122.603 15.0829 122.789 14.5545 122.906 13.8902L124.475 5.05834C124.595 4.37897 124.597 3.85056 124.48 3.47313C124.363 3.0957 124.013 2.90698 123.43 2.90698C122.878 2.90698 122.476 3.10325 122.222 3.49578C121.971 3.87321 121.786 4.39406 121.669 5.05834L120.1 13.8902C119.983 14.5545 119.973 15.0829 120.072 15.4754C120.174 15.8529 120.516 16.0416 121.099 16.0416Z" fill="#7586FF"/>
</svg>
