<svg width="166" height="48" viewBox="0 0 166 48" fill="none" xmlns="http://www.w3.org/2000/svg">
<path d="M1.38 4.37H6.095C7.705 4.37 8.96233 4.56933 9.867 4.968C10.7717 5.36667 11.408 5.99533 11.776 6.854C12.1593 7.69733 12.351 8.832 12.351 10.258V17.02C12.351 18.4613 12.1593 19.6113 11.776 20.47C11.408 21.3287 10.7717 21.965 9.867 22.379C8.97767 22.793 7.73567 23 6.141 23H1.38V4.37ZM6.141 20.148C6.739 20.148 7.176 20.0637 7.452 19.895C7.74333 19.711 7.92733 19.458 8.004 19.136C8.08067 18.7987 8.119 18.308 8.119 17.664V9.545C8.119 8.947 8.073 8.49467 7.981 8.188C7.90433 7.866 7.72033 7.62833 7.429 7.475C7.153 7.32167 6.716 7.245 6.118 7.245H5.497V20.148H6.141ZM18.0766 4.37H22.7916C24.4016 4.37 25.6589 4.56933 26.5636 4.968C27.4682 5.36667 28.1046 5.99533 28.4726 6.854C28.8559 7.69733 29.0476 8.832 29.0476 10.258V17.02C29.0476 18.4613 28.8559 19.6113 28.4726 20.47C28.1046 21.3287 27.4682 21.965 26.5636 22.379C25.6742 22.793 24.4322 23 22.8376 23H18.0766V4.37ZM22.8376 20.148C23.4356 20.148 23.8726 20.0637 24.1486 19.895C24.4399 19.711 24.6239 19.458 24.7006 19.136C24.7772 18.7987 24.8156 18.308 24.8156 17.664V9.545C24.8156 8.947 24.7696 8.49467 24.6776 8.188C24.6009 7.866 24.4169 7.62833 24.1256 7.475C23.8496 7.32167 23.4126 7.245 22.8146 7.245H22.1936V20.148H22.8376Z" fill="#FFC93C"/>
<path d="M48.8229 23.276C47.0442 23.276 45.7179 22.8083 44.8439 21.873C43.9852 20.9223 43.5252 19.4197 43.4639 17.365L46.9829 16.836C46.9982 18.0167 47.1362 18.8677 47.3969 19.389C47.6729 19.895 48.0792 20.148 48.6159 20.148C49.3059 20.148 49.6509 19.6957 49.6509 18.791C49.6509 18.0703 49.4822 17.4493 49.1449 16.928C48.8229 16.4067 48.3092 15.847 47.6039 15.249L45.9939 13.846C45.1966 13.1713 44.5756 12.4583 44.1309 11.707C43.7016 10.9403 43.4869 10.0357 43.4869 8.993C43.4869 7.429 43.9469 6.22533 44.8669 5.382C45.8022 4.53867 47.0826 4.117 48.7079 4.117C50.4712 4.117 51.6672 4.63067 52.2959 5.658C52.9399 6.68533 53.2849 7.935 53.3309 9.407L49.7889 9.844C49.7582 8.878 49.6662 8.188 49.5129 7.774C49.3749 7.34467 49.0606 7.13 48.5699 7.13C48.2172 7.13 47.9412 7.28333 47.7419 7.59C47.5579 7.88133 47.4659 8.211 47.4659 8.579C47.4659 9.20767 47.6039 9.73667 47.8799 10.166C48.1712 10.5953 48.6312 11.086 49.2599 11.638L50.8009 12.995C51.7209 13.777 52.4339 14.605 52.9399 15.479C53.4459 16.353 53.6989 17.388 53.6989 18.584C53.6989 19.458 53.4919 20.2553 53.0779 20.976C52.6792 21.6813 52.1119 22.241 51.3759 22.655C50.6399 23.069 49.7889 23.276 48.8229 23.276ZM60.5913 7.429H57.7853V4.37H67.5143V7.429H64.7313V23H60.5913V7.429ZM77.7565 23.276C76.3612 23.276 75.2572 23.0537 74.4445 22.609C73.6319 22.149 73.0569 21.482 72.7195 20.608C72.3975 19.7187 72.2365 18.5917 72.2365 17.227V4.37H76.3075V17.848C76.3075 18.5993 76.3995 19.1973 76.5835 19.642C76.7829 20.0867 77.1739 20.309 77.7565 20.309C78.3392 20.309 78.7225 20.0867 78.9065 19.642C79.0905 19.1973 79.1825 18.5993 79.1825 17.848V4.37H83.2765V17.227C83.2765 18.5917 83.1079 19.7187 82.7705 20.608C82.4332 21.482 81.8582 22.149 81.0455 22.609C80.2482 23.0537 79.1519 23.276 77.7565 23.276ZM89.116 4.37H93.831C95.441 4.37 96.6983 4.56933 97.603 4.968C98.5077 5.36667 99.144 5.99533 99.512 6.854C99.8953 7.69733 100.087 8.832 100.087 10.258V17.02C100.087 18.4613 99.8953 19.6113 99.512 20.47C99.144 21.3287 98.5077 21.965 97.603 22.379C96.7137 22.793 95.4717 23 93.877 23H89.116V4.37ZM93.877 20.148C94.475 20.148 94.912 20.0637 95.188 19.895C95.4793 19.711 95.6633 19.458 95.74 19.136C95.8167 18.7987 95.855 18.308 95.855 17.664V9.545C95.855 8.947 95.809 8.49467 95.717 8.188C95.6403 7.866 95.4563 7.62833 95.165 7.475C94.889 7.32167 94.452 7.245 93.854 7.245H93.233V20.148H93.877ZM105.836 4.37H109.953V23H105.836V4.37ZM121.287 23.276C119.278 23.276 117.844 22.7623 116.986 21.735C116.127 20.6923 115.698 19.159 115.698 17.135V10.212C115.698 8.188 116.127 6.67 116.986 5.658C117.844 4.63067 119.278 4.117 121.287 4.117C123.311 4.117 124.752 4.63067 125.611 5.658C126.485 6.68533 126.922 8.20333 126.922 10.212V17.135C126.922 19.159 126.485 20.6923 125.611 21.735C124.752 22.7623 123.311 23.276 121.287 23.276ZM121.287 20.355C121.869 20.355 122.253 20.1633 122.437 19.78C122.621 19.3813 122.713 18.8447 122.713 18.17V9.2C122.713 8.51 122.621 7.97333 122.437 7.59C122.253 7.20667 121.869 7.015 121.287 7.015C120.735 7.015 120.367 7.21433 120.183 7.613C119.999 7.99633 119.907 8.52533 119.907 9.2V18.17C119.907 18.8447 119.991 19.3813 120.16 19.78C120.328 20.1633 120.704 20.355 121.287 20.355Z" fill="#5C6FEE"/>
<path d="M10.654 44.104V47.198H9.688V45H1.134L1.12 47.198H0.154L0.168 44.104H0.658C1.302 44.0667 1.75 43.558 2.002 42.578C2.254 41.5887 2.408 40.1887 2.464 38.378L2.576 35.2H9.184V44.104H10.654ZM3.388 38.476C3.34133 39.9693 3.22467 41.2013 3.038 42.172C2.86067 43.1333 2.55733 43.7773 2.128 44.104H8.162V36.096H3.472L3.388 38.476ZM13.0892 37.636H14.0832V43.488L18.9972 37.636H19.8792V45H18.8852V39.148L13.9852 45H13.0892V37.636ZM26.7215 41.164C27.2442 41.2853 27.6455 41.4953 27.9255 41.794C28.2149 42.0927 28.3595 42.4567 28.3595 42.886C28.3595 43.3153 28.2102 43.698 27.9115 44.034C27.6222 44.37 27.2255 44.6313 26.7215 44.818C26.2175 44.9953 25.6622 45.084 25.0555 45.084C24.5235 45.084 24.0008 45.0093 23.4875 44.86C22.9742 44.7013 22.5262 44.4727 22.1435 44.174L22.4795 43.432C22.8155 43.684 23.2075 43.88 23.6555 44.02C24.1035 44.16 24.5562 44.23 25.0135 44.23C25.6949 44.23 26.2502 44.104 26.6795 43.852C27.1182 43.5907 27.3375 43.2407 27.3375 42.802C27.3375 42.41 27.1602 42.1067 26.8055 41.892C26.4508 41.668 25.9655 41.556 25.3495 41.556H24.0895V40.828H25.2935C25.8442 40.828 26.2875 40.7253 26.6235 40.52C26.9595 40.3053 27.1275 40.0207 27.1275 39.666C27.1275 39.274 26.9362 38.966 26.5535 38.742C26.1802 38.518 25.6902 38.406 25.0835 38.406C24.2902 38.406 23.5062 38.6067 22.7315 39.008L22.4515 38.238C23.3288 37.7807 24.2388 37.552 25.1815 37.552C25.7415 37.552 26.2455 37.636 26.6935 37.804C27.1509 37.9627 27.5055 38.1913 27.7575 38.49C28.0189 38.7887 28.1495 39.134 28.1495 39.526C28.1495 39.8993 28.0189 40.2307 27.7575 40.52C27.5055 40.8093 27.1602 41.024 26.7215 41.164ZM33.71 37.58C34.6714 37.58 35.4087 37.8227 35.922 38.308C36.4354 38.784 36.692 39.4933 36.692 40.436V45H35.74V43.852C35.516 44.2347 35.1847 44.5333 34.746 44.748C34.3167 44.9627 33.8034 45.07 33.206 45.07C32.3847 45.07 31.7314 44.874 31.246 44.482C30.7607 44.09 30.518 43.572 30.518 42.928C30.518 42.3027 30.742 41.7987 31.19 41.416C31.6474 41.0333 32.3707 40.842 33.36 40.842H35.698V40.394C35.698 39.7593 35.5207 39.2787 35.166 38.952C34.8114 38.616 34.2934 38.448 33.612 38.448C33.1454 38.448 32.6974 38.5273 32.268 38.686C31.8387 38.8353 31.47 39.0453 31.162 39.316L30.714 38.574C31.0874 38.2567 31.5354 38.014 32.058 37.846C32.5807 37.6687 33.1314 37.58 33.71 37.58ZM33.36 44.286C33.92 44.286 34.4007 44.16 34.802 43.908C35.2034 43.6467 35.502 43.2733 35.698 42.788V41.584H33.388C32.128 41.584 31.498 42.0227 31.498 42.9C31.498 43.3293 31.6614 43.67 31.988 43.922C32.3147 44.1647 32.772 44.286 33.36 44.286ZM39.8981 37.636H40.8921V43.488L45.8061 37.636H46.6881V45H45.6941V39.148L40.7941 45H39.8981V37.636ZM43.2441 36.572C42.6095 36.572 42.1055 36.4133 41.7321 36.096C41.3588 35.7787 41.1675 35.3307 41.1581 34.752H41.8721C41.8815 35.116 42.0121 35.41 42.2641 35.634C42.5161 35.8487 42.8428 35.956 43.2441 35.956C43.6455 35.956 43.9721 35.8487 44.2241 35.634C44.4855 35.41 44.6208 35.116 44.6301 34.752H45.3441C45.3348 35.3307 45.1388 35.7787 44.7561 36.096C44.3828 36.4133 43.8788 36.572 43.2441 36.572ZM50.0968 37.636H51.0908V40.898H55.7248V37.636H56.7188V45H55.7248V41.752H51.0908V45H50.0968V37.636ZM71.5241 45.154L70.1661 43.754C69.3355 44.6407 68.2435 45.084 66.8901 45.084C66.2555 45.084 65.6861 44.9813 65.1821 44.776C64.6875 44.5613 64.3001 44.2673 64.0201 43.894C63.7401 43.5113 63.6001 43.0773 63.6001 42.592C63.6001 42.004 63.7868 41.4767 64.1601 41.01C64.5335 40.5433 65.1681 40.0533 66.0641 39.54C65.5975 39.0547 65.2755 38.644 65.0981 38.308C64.9208 37.9627 64.8321 37.5987 64.8321 37.216C64.8321 36.5907 65.0561 36.0867 65.5041 35.704C65.9521 35.3213 66.5541 35.13 67.3101 35.13C68.0101 35.13 68.5655 35.3027 68.9761 35.648C69.3868 35.9933 69.5921 36.4693 69.5921 37.076C69.5921 37.5613 69.4288 38 69.1021 38.392C68.7755 38.7747 68.2108 39.1993 67.4081 39.666L70.0961 42.438C70.3948 41.906 70.6141 41.276 70.7541 40.548L71.5661 40.8C71.3888 41.6773 71.0995 42.4287 70.6981 43.054L72.0981 44.496L71.5241 45.154ZM67.3101 35.872C66.8248 35.872 66.4421 35.9933 66.1621 36.236C65.8915 36.4787 65.7561 36.8007 65.7561 37.202C65.7561 37.4913 65.8308 37.7667 65.9801 38.028C66.1295 38.2893 66.4235 38.644 66.8621 39.092C67.5715 38.6813 68.0615 38.3313 68.3321 38.042C68.6028 37.7527 68.7381 37.4353 68.7381 37.09C68.7381 36.7167 68.6121 36.4227 68.3601 36.208C68.1081 35.984 67.7581 35.872 67.3101 35.872ZM66.9461 44.258C68.0288 44.258 68.9061 43.8893 69.5781 43.152L66.6241 40.114C65.8495 40.5527 65.3128 40.9493 65.0141 41.304C64.7248 41.6587 64.5801 42.0553 64.5801 42.494C64.5801 43.026 64.7948 43.4553 65.2241 43.782C65.6628 44.0993 66.2368 44.258 66.9461 44.258ZM82.2714 37.58C82.9621 37.58 83.5874 37.7387 84.1474 38.056C84.7074 38.364 85.1461 38.8027 85.4634 39.372C85.7808 39.9413 85.9394 40.59 85.9394 41.318C85.9394 42.0553 85.7808 42.7087 85.4634 43.278C85.1461 43.8473 84.7074 44.2907 84.1474 44.608C83.5968 44.916 82.9714 45.07 82.2714 45.07C81.6741 45.07 81.1328 44.9487 80.6474 44.706C80.1714 44.454 79.7794 44.09 79.4714 43.614V47.716H78.4774V37.636H79.4294V39.092C79.7281 38.6067 80.1201 38.2333 80.6054 37.972C81.1001 37.7107 81.6554 37.58 82.2714 37.58ZM82.2014 44.188C82.7148 44.188 83.1814 44.0713 83.6014 43.838C84.0214 43.5953 84.3481 43.2547 84.5814 42.816C84.8241 42.3773 84.9454 41.878 84.9454 41.318C84.9454 40.758 84.8241 40.2633 84.5814 39.834C84.3481 39.3953 84.0214 39.0547 83.6014 38.812C83.1814 38.5693 82.7148 38.448 82.2014 38.448C81.6788 38.448 81.2074 38.5693 80.7874 38.812C80.3768 39.0547 80.0501 39.3953 79.8074 39.834C79.5741 40.2633 79.4574 40.758 79.4574 41.318C79.4574 41.878 79.5741 42.3773 79.8074 42.816C80.0501 43.2547 80.3768 43.5953 80.7874 43.838C81.2074 44.0713 81.6788 44.188 82.2014 44.188ZM91.1281 37.58C92.0894 37.58 92.8267 37.8227 93.3401 38.308C93.8534 38.784 94.1101 39.4933 94.1101 40.436V45H93.1581V43.852C92.9341 44.2347 92.6027 44.5333 92.1641 44.748C91.7347 44.9627 91.2214 45.07 90.6241 45.07C89.8027 45.07 89.1494 44.874 88.6641 44.482C88.1787 44.09 87.9361 43.572 87.9361 42.928C87.9361 42.3027 88.1601 41.7987 88.6081 41.416C89.0654 41.0333 89.7887 40.842 90.7781 40.842H93.1161V40.394C93.1161 39.7593 92.9387 39.2787 92.5841 38.952C92.2294 38.616 91.7114 38.448 91.0301 38.448C90.5634 38.448 90.1154 38.5273 89.6861 38.686C89.2567 38.8353 88.8881 39.0453 88.5801 39.316L88.1321 38.574C88.5054 38.2567 88.9534 38.014 89.4761 37.846C89.9987 37.6687 90.5494 37.58 91.1281 37.58ZM90.7781 44.286C91.3381 44.286 91.8187 44.16 92.2201 43.908C92.6214 43.6467 92.9201 43.2733 93.1161 42.788V41.584H90.8061C89.5461 41.584 88.9161 42.0227 88.9161 42.9C88.9161 43.3293 89.0794 43.67 89.4061 43.922C89.7327 44.1647 90.1901 44.286 90.7781 44.286ZM100.75 41.164C101.272 41.2853 101.674 41.4953 101.954 41.794C102.243 42.0927 102.388 42.4567 102.388 42.886C102.388 43.3153 102.238 43.698 101.94 44.034C101.65 44.37 101.254 44.6313 100.75 44.818C100.246 44.9953 99.6905 45.084 99.0838 45.084C98.5518 45.084 98.0291 45.0093 97.5158 44.86C97.0025 44.7013 96.5545 44.4727 96.1718 44.174L96.5078 43.432C96.8438 43.684 97.2358 43.88 97.6838 44.02C98.1318 44.16 98.5845 44.23 99.0418 44.23C99.7231 44.23 100.278 44.104 100.708 43.852C101.146 43.5907 101.366 43.2407 101.366 42.802C101.366 42.41 101.188 42.1067 100.834 41.892C100.479 41.668 99.9938 41.556 99.3778 41.556H98.1178V40.828H99.3218C99.8725 40.828 100.316 40.7253 100.652 40.52C100.988 40.3053 101.156 40.0207 101.156 39.666C101.156 39.274 100.964 38.966 100.582 38.742C100.208 38.518 99.7185 38.406 99.1118 38.406C98.3185 38.406 97.5345 38.6067 96.7598 39.008L96.4798 38.238C97.3571 37.7807 98.2671 37.552 99.2098 37.552C99.7698 37.552 100.274 37.636 100.722 37.804C101.179 37.9627 101.534 38.1913 101.786 38.49C102.047 38.7887 102.178 39.134 102.178 39.526C102.178 39.8993 102.047 40.2307 101.786 40.52C101.534 40.8093 101.188 41.024 100.75 41.164ZM108.998 37.58C109.689 37.58 110.314 37.7387 110.874 38.056C111.434 38.364 111.873 38.8027 112.19 39.372C112.508 39.9413 112.666 40.59 112.666 41.318C112.666 42.0553 112.508 42.7087 112.19 43.278C111.873 43.8473 111.434 44.2907 110.874 44.608C110.324 44.916 109.698 45.07 108.998 45.07C108.401 45.07 107.86 44.9487 107.374 44.706C106.898 44.454 106.506 44.09 106.198 43.614V47.716H105.204V37.636H106.156V39.092C106.455 38.6067 106.847 38.2333 107.332 37.972C107.827 37.7107 108.382 37.58 108.998 37.58ZM108.928 44.188C109.442 44.188 109.908 44.0713 110.328 43.838C110.748 43.5953 111.075 43.2547 111.308 42.816C111.551 42.3773 111.672 41.878 111.672 41.318C111.672 40.758 111.551 40.2633 111.308 39.834C111.075 39.3953 110.748 39.0547 110.328 38.812C109.908 38.5693 109.442 38.448 108.928 38.448C108.406 38.448 107.934 38.5693 107.514 38.812C107.104 39.0547 106.777 39.3953 106.534 39.834C106.301 40.2633 106.184 40.758 106.184 41.318C106.184 41.878 106.301 42.3773 106.534 42.816C106.777 43.2547 107.104 43.5953 107.514 43.838C107.934 44.0713 108.406 44.188 108.928 44.188ZM117.855 37.58C118.816 37.58 119.554 37.8227 120.067 38.308C120.58 38.784 120.837 39.4933 120.837 40.436V45H119.885V43.852C119.661 44.2347 119.33 44.5333 118.891 44.748C118.462 44.9627 117.948 45.07 117.351 45.07C116.53 45.07 115.876 44.874 115.391 44.482C114.906 44.09 114.663 43.572 114.663 42.928C114.663 42.3027 114.887 41.7987 115.335 41.416C115.792 41.0333 116.516 40.842 117.505 40.842H119.843V40.394C119.843 39.7593 119.666 39.2787 119.311 38.952C118.956 38.616 118.438 38.448 117.757 38.448C117.29 38.448 116.842 38.5273 116.413 38.686C115.984 38.8353 115.615 39.0453 115.307 39.316L114.859 38.574C115.232 38.2567 115.68 38.014 116.203 37.846C116.726 37.6687 117.276 37.58 117.855 37.58ZM117.505 44.286C118.065 44.286 118.546 44.16 118.947 43.908C119.348 43.6467 119.647 43.2733 119.843 42.788V41.584H117.533C116.273 41.584 115.643 42.0227 115.643 42.9C115.643 43.3293 115.806 43.67 116.133 43.922C116.46 44.1647 116.917 44.286 117.505 44.286ZM127.613 37.818C128.294 37.818 128.901 37.972 129.433 38.28C129.974 38.5787 130.394 39.0033 130.693 39.554C130.992 40.0953 131.141 40.716 131.141 41.416C131.141 42.1347 130.982 42.774 130.665 43.334C130.357 43.8847 129.923 44.314 129.363 44.622C128.803 44.93 128.159 45.084 127.431 45.084C126.208 45.084 125.261 44.6547 124.589 43.796C123.917 42.9373 123.581 41.752 123.581 40.24C123.581 38.6627 123.88 37.454 124.477 36.614C125.084 35.774 126.026 35.2047 127.305 34.906L130.609 34.15L130.777 35.06L127.669 35.774C126.614 36.0073 125.84 36.4227 125.345 37.02C124.85 37.608 124.58 38.4807 124.533 39.638C124.832 39.0687 125.247 38.6253 125.779 38.308C126.311 37.9813 126.922 37.818 127.613 37.818ZM127.459 44.258C127.972 44.258 128.43 44.1413 128.831 43.908C129.242 43.6653 129.559 43.3293 129.783 42.9C130.016 42.4707 130.133 41.9853 130.133 41.444C130.133 40.9027 130.021 40.4267 129.797 40.016C129.573 39.6053 129.256 39.288 128.845 39.064C128.444 38.8307 127.982 38.714 127.459 38.714C126.936 38.714 126.47 38.8307 126.059 39.064C125.658 39.288 125.34 39.6053 125.107 40.016C124.883 40.4267 124.771 40.9027 124.771 41.444C124.771 41.9853 124.883 42.4707 125.107 42.9C125.34 43.3293 125.662 43.6653 126.073 43.908C126.484 44.1413 126.946 44.258 127.459 44.258ZM136.87 45.07C136.16 45.07 135.521 44.9113 134.952 44.594C134.382 44.2673 133.934 43.8193 133.608 43.25C133.281 42.6807 133.118 42.0367 133.118 41.318C133.118 40.5993 133.281 39.9553 133.608 39.386C133.934 38.8167 134.382 38.3733 134.952 38.056C135.521 37.7387 136.16 37.58 136.87 37.58C137.579 37.58 138.218 37.7387 138.788 38.056C139.357 38.3733 139.8 38.8167 140.118 39.386C140.444 39.9553 140.608 40.5993 140.608 41.318C140.608 42.0367 140.444 42.6807 140.118 43.25C139.8 43.8193 139.357 44.2673 138.788 44.594C138.218 44.9113 137.579 45.07 136.87 45.07ZM136.87 44.188C137.392 44.188 137.859 44.0713 138.27 43.838C138.69 43.5953 139.016 43.2547 139.25 42.816C139.483 42.3773 139.6 41.878 139.6 41.318C139.6 40.758 139.483 40.2587 139.25 39.82C139.016 39.3813 138.69 39.0453 138.27 38.812C137.859 38.5693 137.392 38.448 136.87 38.448C136.347 38.448 135.876 38.5693 135.456 38.812C135.045 39.0453 134.718 39.3813 134.476 39.82C134.242 40.2587 134.126 40.758 134.126 41.318C134.126 41.878 134.242 42.3773 134.476 42.816C134.718 43.2547 135.045 43.5953 135.456 43.838C135.876 44.0713 136.347 44.188 136.87 44.188ZM148.199 38.518H145.413V45H144.419V38.518H141.633V37.636H148.199V38.518ZM152.87 41.724H151.19V45H150.196V37.636H151.19V40.87H152.884L155.474 37.636H156.552L153.654 41.206L156.762 45H155.586L152.87 41.724ZM161.288 37.58C162.249 37.58 162.986 37.8227 163.5 38.308C164.013 38.784 164.27 39.4933 164.27 40.436V45H163.318V43.852C163.094 44.2347 162.762 44.5333 162.324 44.748C161.894 44.9627 161.381 45.07 160.784 45.07C159.962 45.07 159.309 44.874 158.824 44.482C158.338 44.09 158.096 43.572 158.096 42.928C158.096 42.3027 158.32 41.7987 158.768 41.416C159.225 41.0333 159.948 40.842 160.938 40.842H163.276V40.394C163.276 39.7593 163.098 39.2787 162.744 38.952C162.389 38.616 161.871 38.448 161.19 38.448C160.723 38.448 160.275 38.5273 159.846 38.686C159.416 38.8353 159.048 39.0453 158.74 39.316L158.292 38.574C158.665 38.2567 159.113 38.014 159.636 37.846C160.158 37.6687 160.709 37.58 161.288 37.58ZM160.938 44.286C161.498 44.286 161.978 44.16 162.38 43.908C162.781 43.6467 163.08 43.2733 163.276 42.788V41.584H160.966C159.706 41.584 159.076 42.0227 159.076 42.9C159.076 43.3293 159.239 43.67 159.566 43.922C159.892 44.1647 160.35 44.286 160.938 44.286Z" fill="#7C7C7C"/>
</svg>
