<svg width="66" height="66" viewBox="0 0 66 66" fill="none" xmlns="http://www.w3.org/2000/svg">
<circle cx="33" cy="33" r="33" fill="#FFC93C"/>
<path d="M48.4375 19.9375H17.5625C16.9057 19.9375 16.375 20.4682 16.375 21.125V44.875C16.375 45.5318 16.9057 46.0625 17.5625 46.0625H48.4375C49.0943 46.0625 49.625 45.5318 49.625 44.875V21.125C49.625 20.4682 49.0943 19.9375 48.4375 19.9375ZM46.9531 24.0492V43.3906H19.0469V24.0492L18.0227 23.2514L19.4811 21.3773L21.0693 22.6131H44.9344L46.5227 21.3773L47.9811 23.2514L46.9531 24.0492V24.0492ZM44.9344 22.6094L33 31.8867L21.0656 22.6094L19.4773 21.3736L18.0189 23.2477L19.0432 24.0455L31.7197 33.9018C32.0843 34.185 32.5328 34.3387 32.9944 34.3387C33.4561 34.3387 33.9046 34.185 34.2691 33.9018L46.9531 24.0492L47.9773 23.2514L46.5189 21.3773L44.9344 22.6094Z" fill="white"/>
</svg>
