<svg width="545" height="401" viewBox="0 0 545 401" fill="none" xmlns="http://www.w3.org/2000/svg">
<g clip-path="url(#clip0)">
<path d="M495.217 307.679C488.15 328.388 478.34 348.85 464.947 368.028C464.651 368.46 464.349 368.883 464.046 369.313L423.89 357.015C424.065 356.6 424.254 356.135 424.457 355.627C436.565 325.681 509.403 143.158 500.763 105.483C501.58 108.575 528.298 210.875 495.217 307.679Z" fill="#E6E6E6"/>
<path d="M472.694 370.401C472.212 370.776 471.716 371.147 471.214 371.509L441.091 362.283C441.444 361.946 441.855 361.549 442.328 361.101C450.057 353.647 473.014 331.317 495.218 307.679C519.078 282.277 542.073 255.368 544.381 243.787C543.954 246.428 530.446 326.774 472.694 370.401Z" fill="#E6E6E6"/>
<path d="M476.412 94.9595H474.214V34.8113C474.214 25.5787 470.545 16.7244 464.014 10.196C457.482 3.6676 448.624 0 439.387 0H311.894C302.657 0 293.799 3.6676 287.267 10.196C280.736 16.7244 277.066 25.5787 277.066 34.8113V364.79C277.066 374.023 280.736 382.877 287.267 389.405C293.799 395.934 302.657 399.601 311.894 399.601H439.386C448.623 399.601 457.482 395.934 464.013 389.405C470.544 382.877 474.214 374.023 474.214 364.79V137.774H476.411L476.412 94.9595Z" fill="#3F3D56"/>
<path d="M440.792 9.05579H424.15C424.916 10.9314 425.208 12.9664 425.001 14.9815C424.795 16.9967 424.095 18.9302 422.965 20.6115C421.835 22.2928 420.308 23.6705 418.519 24.623C416.731 25.5756 414.735 26.0738 412.708 26.0738H339.67C337.643 26.0736 335.648 25.5753 333.86 24.6228C332.071 23.6703 330.545 22.2928 329.415 20.6117C328.284 18.9306 327.585 16.9975 327.378 14.9826C327.171 12.9677 327.464 10.9329 328.229 9.05744H312.683C305.785 9.05744 299.169 11.7965 294.291 16.6719C289.413 21.5474 286.673 28.16 286.673 35.0549V364.548C286.673 371.443 289.413 378.055 294.291 382.931C299.169 387.806 305.785 390.545 312.683 390.545H440.787C447.685 390.545 454.301 387.806 459.179 382.931C464.056 378.055 466.797 371.443 466.797 364.548V364.548V35.0533C466.797 28.1583 464.056 21.5458 459.179 16.6703C454.301 11.7948 447.685 9.05579 440.787 9.05579L440.792 9.05579Z" fill="white"/>
<path d="M391.056 349.16C392.319 341.377 387.031 334.044 379.245 332.781C371.459 331.518 364.123 336.804 362.859 344.586C361.596 352.369 366.883 359.702 374.67 360.965C382.456 362.227 389.792 356.942 391.056 349.16Z" fill="#E6E6E6"/>
<path d="M455.699 181.447H297.771V212.613H455.699V181.447Z" fill="#E6E6E6"/>
<path d="M301.138 209.248H452.333V184.814H301.138V209.248Z" fill="white"/>
<path d="M314.373 187.519C316.215 187.519 318.016 188.065 319.548 189.088C321.079 190.11 322.273 191.564 322.978 193.265C323.683 194.967 323.867 196.838 323.508 198.644C323.149 200.45 322.262 202.109 320.959 203.411C319.657 204.713 317.997 205.6 316.19 205.959C314.383 206.318 312.511 206.134 310.809 205.429C309.107 204.724 307.652 203.531 306.629 202C305.605 200.469 305.059 198.669 305.059 196.828C305.059 195.606 305.3 194.395 305.768 193.265C306.236 192.136 306.922 191.11 307.787 190.245C308.652 189.381 309.679 188.695 310.809 188.227C311.939 187.759 313.15 187.519 314.373 187.519Z" fill="#FFC93C"/>
<path d="M428.568 193.185H336.645V195.209H428.568V193.185Z" fill="#E6E6E6"/>
<path d="M428.568 198.447H336.645V200.471H428.568V198.447Z" fill="#E6E6E6"/>
<path d="M455.699 225.922H297.771V257.088H455.699V225.922Z" fill="#E6E6E6"/>
<path d="M301.138 253.723H452.333V229.289H301.138V253.723Z" fill="white"/>
<path d="M314.373 250.612C319.517 250.612 323.687 246.444 323.687 241.303C323.687 236.161 319.517 231.993 314.373 231.993C309.229 231.993 305.059 236.161 305.059 241.303C305.059 246.444 309.229 250.612 314.373 250.612Z" fill="#FFC93C"/>
<path d="M428.568 237.66H336.645V239.684H428.568V237.66Z" fill="#E6E6E6"/>
<path d="M428.568 242.922H336.645V244.945H428.568V242.922Z" fill="#E6E6E6"/>
<path d="M455.699 270.397H297.771V301.563H455.699V270.397Z" fill="#E6E6E6"/>
<path d="M301.138 298.198H452.333V273.764H301.138V298.198Z" fill="white"/>
<path d="M314.373 295.087C319.517 295.087 323.687 290.919 323.687 285.778C323.687 280.636 319.517 276.468 314.373 276.468C309.229 276.468 305.059 280.636 305.059 285.778C305.059 290.919 309.229 295.087 314.373 295.087Z" fill="#FFC93C"/>
<path d="M428.568 282.135H336.645V284.159H428.568V282.135Z" fill="#E6E6E6"/>
<path d="M428.568 287.397H336.645V289.421H428.568V287.397Z" fill="#E6E6E6"/>
<path d="M376.735 150.401C401.006 150.401 420.681 130.735 420.681 106.475C420.681 82.2156 401.006 62.5493 376.735 62.5493C352.464 62.5493 332.788 82.2156 332.788 106.475C332.788 130.735 352.464 150.401 376.735 150.401Z" fill="#7586FF"/>
<path d="M398.159 92.5313V120.419C398.159 120.681 398.107 120.94 398.007 121.181C397.907 121.423 397.76 121.643 397.575 121.828C397.39 122.013 397.17 122.16 396.929 122.26C396.687 122.36 396.428 122.411 396.166 122.411H357.304C357.042 122.411 356.783 122.36 356.541 122.26C356.299 122.16 356.08 122.013 355.895 121.828C355.709 121.643 355.563 121.423 355.463 121.181C355.362 120.94 355.311 120.681 355.311 120.419V92.5313C355.31 92.3034 355.35 92.0772 355.431 91.864C355.55 91.5236 355.76 91.2225 356.038 90.9933C356.317 90.7642 356.653 90.6157 357.01 90.5642C357.107 90.5483 357.205 90.54 357.304 90.5393H396.166C396.264 90.54 396.363 90.5483 396.46 90.5642C396.817 90.6157 397.153 90.7641 397.431 90.9933C397.71 91.2225 397.92 91.5236 398.039 91.864C398.119 92.0772 398.16 92.3034 398.159 92.5313Z" fill="white"/>
<path d="M398.039 91.864L377.328 107.272C377.157 107.401 376.949 107.471 376.735 107.471C376.521 107.471 376.312 107.401 376.142 107.272L355.431 91.864C355.55 91.5237 355.76 91.2225 356.038 90.9933C356.317 90.7642 356.653 90.6157 357.01 90.5642L376.735 105.235L396.46 90.5642C396.817 90.6157 397.153 90.7641 397.431 90.9933C397.71 91.2225 397.92 91.5236 398.039 91.864Z" fill="#6C63FF"/>
<path d="M120.058 142.267C120.058 155.888 132.659 153.828 148.203 153.828C163.748 153.828 176.349 155.888 176.349 142.267C176.349 128.645 170.193 104.5 148.203 104.5C125.456 104.5 120.058 128.645 120.058 142.267Z" fill="#2F2E41"/>
<path d="M208.194 391.092L217.193 388.193L210.287 352.124L197.007 356.403L208.194 391.092Z" fill="#F2BDC5"/>
<path d="M204.953 388.895L222.672 383.186L222.673 383.186C224.156 382.708 225.719 382.527 227.272 382.653C228.825 382.778 230.338 383.209 231.724 383.919C233.111 384.629 234.344 385.606 235.353 386.792C236.362 387.979 237.127 389.353 237.605 390.835L237.724 391.202L208.711 400.549L204.953 388.895Z" fill="#2F2E41"/>
<path d="M97.7464 391.389L107.2 391.389L111.698 354.942L97.7448 354.942L97.7464 391.389Z" fill="#F2BDC5"/>
<path d="M95.3353 388.305L113.953 388.304H113.954C115.512 388.304 117.054 388.61 118.494 389.206C119.933 389.802 121.241 390.676 122.343 391.777C123.445 392.878 124.319 394.186 124.915 395.624C125.511 397.063 125.818 398.605 125.818 400.163V400.548L95.3358 400.549L95.3353 388.305Z" fill="#2F2E41"/>
<path d="M85.5417 250.864C84.794 249.958 84.2371 248.911 83.9046 247.784C83.5721 246.658 83.4708 245.476 83.6068 244.309C83.7428 243.143 84.1133 242.016 84.696 240.996C85.2787 239.976 86.0616 239.085 86.9977 238.375C87.3411 238.117 87.7039 237.885 88.0828 237.682L118.92 165.19C119.221 164.319 119.692 163.516 120.305 162.827C120.918 162.139 121.662 161.579 122.493 161.179C123.323 160.78 124.225 160.549 125.146 160.5C126.067 160.451 126.988 160.584 127.857 160.893C128.726 161.202 129.525 161.68 130.208 162.299C130.891 162.918 131.444 163.666 131.836 164.5C132.228 165.335 132.451 166.238 132.492 167.159C132.533 168.08 132.39 168.999 132.073 169.865L100.317 241.991C101.115 243.92 101.194 246.07 100.54 248.051C99.8855 250.032 98.5414 251.713 96.7521 252.788C94.9628 253.862 92.847 254.259 90.7897 253.906C88.7323 253.553 86.8701 252.474 85.5417 250.864Z" fill="#F2BDC5"/>
<path d="M199.573 258.137C197.8 257.059 196.473 255.381 195.834 253.408C195.195 251.435 195.285 249.298 196.089 247.386L164.324 175.236C164.01 174.371 163.871 173.453 163.914 172.535C163.957 171.616 164.182 170.715 164.574 169.884C164.967 169.052 165.52 168.306 166.202 167.689C166.884 167.072 167.681 166.596 168.548 166.288C169.415 165.98 170.334 165.846 171.253 165.894C172.171 165.942 173.071 166.171 173.901 166.568C174.731 166.965 175.474 167.523 176.088 168.208C176.701 168.893 177.173 169.692 177.477 170.56L208.324 243.077C208.703 243.28 209.065 243.512 209.409 243.77C210.345 244.48 211.128 245.371 211.71 246.391C212.293 247.411 212.664 248.538 212.8 249.704C212.936 250.871 212.834 252.053 212.502 253.179C212.169 254.306 211.612 255.353 210.865 256.259C210.044 257.252 209.014 258.05 207.848 258.598C206.683 259.146 205.41 259.429 204.122 259.426C202.515 259.429 200.939 258.982 199.573 258.137Z" fill="#F2BDC5"/>
<path d="M157.382 151.486C166.56 146.471 169.933 134.969 164.916 125.795C159.899 116.621 148.391 113.25 139.213 118.265C130.035 123.279 126.662 134.782 131.679 143.955C136.696 153.129 148.204 156.5 157.382 151.486Z" fill="#F2BDC5"/>
<path d="M121.624 215.396L117.867 171.783C117.708 169.938 117.964 168.08 118.617 166.347C119.269 164.613 120.301 163.047 121.638 161.764C122.974 160.481 124.581 159.513 126.34 158.93C128.099 158.348 129.966 158.167 131.805 158.399L166.707 162.815C169.904 163.213 172.82 164.838 174.838 167.347C176.856 169.856 177.818 173.052 177.519 176.258C176.133 191.842 172.266 219.2 161.937 227.352L161.779 227.476L121.624 215.396Z" fill="#2F2E41"/>
<path d="M111.432 369.335L96.9525 367.62C96.0986 367.53 95.3085 367.126 94.7361 366.487C94.1636 365.847 93.8497 365.018 93.8554 364.16C93.8872 357.195 93.8694 350.062 93.8522 343.164C93.7043 284.064 93.5646 228.242 121.413 212.839L121.564 212.756L162.068 226.769L163.618 253.893L196.5 300.454C199.22 304.301 201.267 308.581 202.555 313.112L214.773 356.008C214.901 356.46 214.937 356.934 214.877 357.4C214.817 357.867 214.662 358.316 214.423 358.721C214.184 359.126 213.865 359.478 213.485 359.756C213.106 360.034 212.674 360.232 212.215 360.337L197.974 363.622C197.153 363.811 196.292 363.695 195.551 363.296C194.809 362.897 194.238 362.243 193.943 361.454L174.861 313.968L136.087 272.208C135.94 272.056 135.755 271.947 135.551 271.893C135.347 271.839 135.133 271.842 134.93 271.901C134.728 271.96 134.545 272.073 134.403 272.228C134.26 272.384 134.162 272.575 134.121 272.781L115.208 366.573C115.039 367.422 114.557 368.177 113.858 368.688C113.159 369.2 112.294 369.43 111.432 369.335Z" fill="#2F2E41"/>
<path d="M170.18 133.018H162.689L159.384 123.769L158.724 133.018H155.143L153.215 127.623L152.83 133.018H126.227C126.227 130.386 126.745 127.78 127.753 125.349C128.76 122.918 130.237 120.709 132.099 118.848C133.961 116.987 136.171 115.511 138.603 114.504C141.036 113.497 143.643 112.979 146.275 112.979H150.131C152.764 112.979 155.371 113.497 157.803 114.504C160.236 115.511 162.446 116.987 164.308 118.848C166.169 120.709 167.646 122.918 168.654 125.349C169.661 127.78 170.18 130.386 170.18 133.018Z" fill="#2F2E41"/>
</g>
<defs>
<clipPath id="clip0">
<rect width="544.381" height="401" fill="white"/>
</clipPath>
</defs>
</svg>
