<svg width="540" height="408" viewBox="0 0 540 408" fill="none" xmlns="http://www.w3.org/2000/svg">
<g clip-path="url(#clip0)">
<path d="M222.581 282.677C222.581 296.758 211.646 308.172 198.158 308.172C184.669 308.172 173.735 296.758 173.735 282.677C173.735 282.358 173.74 282.041 173.753 281.724C174 267.646 185.137 256.447 198.623 256.71C212.109 256.973 222.837 268.599 222.585 282.677H222.581Z" fill="#7586FF"/>
<path d="M189.557 294L182.523 284.62L184.189 283.37L189.92 291.011L212.482 272.553L213.801 274.166L189.557 294Z" fill="white"/>
<path d="M355.546 143.34C356.052 143.571 356.538 143.842 357 144.151L403.196 124.434L404.844 112.265L423.303 112.152L422.213 140.064L361.238 156.191C361.109 156.615 360.955 157.03 360.776 157.435C359.895 159.316 358.477 160.894 356.701 161.972C354.925 163.05 352.87 163.579 350.795 163.493C348.719 163.407 346.715 162.71 345.035 161.489C343.354 160.267 342.072 158.577 341.349 156.629C340.626 154.682 340.495 152.564 340.971 150.542C341.448 148.52 342.511 146.684 344.028 145.264C345.545 143.845 347.447 142.905 349.497 142.563C351.546 142.221 353.65 142.492 355.546 143.343L355.546 143.34Z" fill="#F2BDC5"/>
<path d="M430.016 396.261H417.389L411.382 347.555H430.018L430.016 396.261Z" fill="#F2BDC5"/>
<path d="M408.369 392.653H432.722V407.981H393.036C393.036 403.915 394.651 400.015 397.527 397.139C400.403 394.263 404.303 392.648 408.369 392.648V392.648V392.653Z" fill="#3B3B3B"/>
<path d="M479.126 392.693L466.56 393.929L455.807 346.047L474.354 344.225L479.126 392.693Z" fill="#F2BDC5"/>
<path d="M457.222 391.227L481.453 388.84L482.956 404.097L443.469 407.986C443.071 403.94 444.296 399.901 446.874 396.758C449.453 393.616 453.175 391.626 457.221 391.227H457.222Z" fill="#3B3B3B"/>
<path d="M433.531 60.6044C447.502 60.6044 458.828 49.2785 458.828 35.3073C458.828 21.3361 447.502 10.0103 433.531 10.0103C419.56 10.0103 408.234 21.3361 408.234 35.3073C408.234 49.2785 419.56 60.6044 433.531 60.6044Z" fill="#F2BDC5"/>
<path d="M414.566 386.41C413.481 386.412 412.43 386.031 411.598 385.334C410.766 384.637 410.207 383.668 410.019 382.599C403.487 346.325 382.119 227.69 381.608 224.402C381.596 224.326 381.59 224.25 381.591 224.173V215.327C381.59 215.005 381.691 214.69 381.878 214.429L384.7 210.478C384.835 210.288 385.011 210.131 385.215 210.02C385.419 209.908 385.646 209.845 385.879 209.835C401.972 209.081 454.665 206.869 457.211 210.05C459.767 213.243 458.859 222.932 458.652 224.841L458.663 225.04L482.338 376.445C482.523 377.652 482.226 378.885 481.509 379.874C480.793 380.864 479.715 381.532 478.51 381.733L463.724 384.169C462.623 384.346 461.494 384.122 460.545 383.537C459.595 382.953 458.886 382.046 458.548 380.984C453.975 366.37 438.64 317.209 433.325 298.186C433.296 298.061 433.221 297.951 433.115 297.878C433.009 297.805 432.879 297.775 432.752 297.794C432.625 297.812 432.509 297.878 432.428 297.978C432.347 298.078 432.306 298.204 432.315 298.333C432.58 316.466 433.222 362.73 433.448 378.709L433.471 380.431C433.481 381.596 433.053 382.722 432.273 383.587C431.492 384.452 430.415 384.993 429.255 385.103L414.997 386.394C414.854 386.407 414.71 386.412 414.566 386.41Z" fill="#3B3B3B"/>
<path d="M417.476 70.5519C413.062 73.1764 410.42 77.9984 408.904 82.914C406.098 91.9995 404.408 101.393 403.874 110.887L402.271 139.313L382.438 214.676C399.628 229.221 409.542 225.914 432.681 214.018C455.82 202.122 458.463 217.984 458.463 217.984L463.09 153.86L469.7 83.7882C468.216 82.0014 466.536 80.3867 464.693 78.9742C458.582 74.2219 451.473 70.9184 443.901 69.3126C436.329 67.7068 428.491 67.8407 420.978 69.7041L417.476 70.5519Z" fill="#7586FF"/>
<path d="M411.035 158.56C411.568 158.76 412.084 159.001 412.58 159.282L458.259 136.416L459.017 124.03L477.859 122.73L478.869 150.966L417.826 171.155C417.328 173.294 416.19 175.231 414.565 176.708C412.939 178.184 410.902 179.131 408.725 179.422C406.548 179.713 404.334 179.334 402.378 178.336C400.422 177.337 398.816 175.767 397.774 173.834C396.732 171.9 396.303 169.696 396.545 167.513C396.786 165.33 397.687 163.272 399.127 161.614C400.567 159.955 402.477 158.774 404.604 158.228C406.732 157.682 408.975 157.797 411.036 158.557L411.035 158.56Z" fill="#F2BDC5"/>
<path d="M469.371 84.1035C480.609 88.0696 482.59 131.044 482.59 131.044C469.368 123.772 453.502 135.671 453.502 135.671C453.502 135.671 450.197 124.432 446.231 109.889C445.033 105.798 444.89 101.471 445.814 97.3097C446.739 93.1485 448.701 89.2889 451.518 86.0902C451.518 86.0902 458.132 80.1351 469.371 84.1035Z" fill="#7586FF"/>
<path d="M456.21 41.9953C453.058 39.4739 448.758 44.0552 448.758 44.0552L446.236 21.3673C446.236 21.3673 430.478 23.2553 420.39 20.7368C410.302 18.2183 408.728 29.8804 408.728 29.8804C408.208 25.1707 408.102 20.4243 408.412 15.6961C409.043 10.0227 417.237 4.34925 431.736 0.56672C446.235 -3.21581 453.799 13.1747 453.799 13.1747C463.891 18.2139 459.365 44.5197 456.21 41.9953Z" fill="#2F2E41"/>
<path d="M117.864 33.3206C117.262 33.3216 116.685 33.5616 116.26 33.9877C115.835 34.4138 115.596 34.9913 115.596 35.5934C115.596 36.1955 115.835 36.773 116.26 37.1991C116.685 37.6252 117.262 37.8652 117.864 37.8663H283.809C284.411 37.8652 284.988 37.6252 285.414 37.1991C285.839 36.773 286.078 36.1955 286.078 35.5934C286.078 34.9913 285.839 34.4138 285.414 33.9877C284.988 33.5616 284.411 33.3216 283.809 33.3206H117.864Z" fill="#CCCCCC"/>
<path d="M117.865 46.9578C117.262 46.9573 116.685 47.196 116.258 47.6212C115.832 48.0465 115.591 48.6236 115.59 49.2258C115.589 49.8281 115.827 50.4062 116.251 50.8332C116.676 51.2603 117.253 51.5013 117.855 51.5034H222.767C223.065 51.5034 223.361 51.4447 223.637 51.3304C223.912 51.2162 224.163 51.0488 224.374 50.8377C224.585 50.6267 224.753 50.3761 224.867 50.1004C224.981 49.8246 225.04 49.5291 225.04 49.2306C225.04 48.9321 224.981 48.6366 224.867 48.3608C224.753 48.0851 224.585 47.8345 224.374 47.6235C224.163 47.4124 223.912 47.245 223.637 47.1308C223.361 47.0165 223.065 46.9578 222.767 46.9578H117.865Z" fill="#CCCCCC"/>
<path d="M281.729 15.946C281.729 21.4572 277.45 25.925 272.17 25.925C266.891 25.925 262.611 21.4572 262.611 15.946C262.611 15.8211 262.613 15.697 262.618 15.5731C262.715 10.063 267.074 5.67963 272.352 5.78254C277.631 5.88544 281.83 10.4358 281.731 15.946H281.729Z" fill="#FFC93C"/>
<path d="M268.804 20.3777L266.051 16.7066L266.703 16.2173L268.946 19.208L277.777 11.9835L278.293 12.6145L268.804 20.3777Z" fill="white"/>
<path d="M117.864 116.71C117.262 116.712 116.685 116.951 116.26 117.378C115.835 117.804 115.596 118.381 115.596 118.983C115.596 119.585 115.835 120.163 116.26 120.589C116.685 121.015 117.262 121.255 117.864 121.256H283.809C284.411 121.255 284.988 121.015 285.414 120.589C285.839 120.163 286.078 119.585 286.078 118.983C286.078 118.381 285.839 117.804 285.414 117.378C284.988 116.951 284.411 116.712 283.809 116.71H117.864Z" fill="#CCCCCC"/>
<path d="M117.865 130.347C117.262 130.347 116.685 130.586 116.258 131.011C115.832 131.436 115.591 132.013 115.59 132.615C115.589 133.218 115.827 133.796 116.251 134.223C116.676 134.65 117.253 134.891 117.855 134.893H222.767C223.37 134.893 223.948 134.654 224.374 134.227C224.8 133.801 225.04 133.223 225.04 132.62C225.04 132.017 224.8 131.439 224.374 131.013C223.948 130.587 223.37 130.347 222.767 130.347H117.865Z" fill="#CCCCCC"/>
<path d="M280.998 99.3356C280.998 104.847 276.718 109.315 271.439 109.315C266.159 109.315 261.879 104.847 261.879 99.3356C261.879 99.2107 261.881 99.0867 261.886 98.9628C261.983 93.4526 266.342 89.0693 271.621 89.1722C276.899 89.2751 281.098 93.8255 280.999 99.3356H280.998Z" fill="#FFC93C"/>
<path d="M268.072 103.767L265.319 100.096L265.971 99.607L268.214 102.598L277.045 95.3733L277.561 96.0043L268.072 103.767Z" fill="white"/>
<path d="M117.864 200.1C117.262 200.101 116.685 200.341 116.26 200.767C115.835 201.193 115.596 201.771 115.596 202.373C115.596 202.975 115.835 203.553 116.26 203.979C116.685 204.405 117.262 204.645 117.864 204.646H283.809C284.411 204.645 284.988 204.405 285.414 203.979C285.839 203.553 286.078 202.975 286.078 202.373C286.078 201.771 285.839 201.193 285.414 200.767C284.988 200.341 284.411 200.101 283.809 200.1H117.864Z" fill="#CCCCCC"/>
<path d="M117.865 213.737C117.262 213.737 116.685 213.975 116.258 214.401C115.832 214.826 115.591 215.403 115.59 216.005C115.589 216.608 115.827 217.186 116.251 217.613C116.676 218.04 117.253 218.281 117.855 218.283H222.767C223.37 218.283 223.948 218.044 224.374 217.617C224.8 217.191 225.04 216.613 225.04 216.01C225.04 215.407 224.8 214.829 224.374 214.403C223.948 213.977 223.37 213.737 222.767 213.737H117.865Z" fill="#CCCCCC"/>
<path d="M280.998 182.726C280.998 188.237 276.718 192.704 271.439 192.704C266.159 192.704 261.879 188.237 261.879 182.726C261.879 182.601 261.881 182.477 261.886 182.353C261.983 176.842 266.342 172.459 271.621 172.562C276.899 172.665 281.098 177.215 280.999 182.726H280.998Z" fill="#FFC93C"/>
<path d="M268.072 187.157L265.319 183.486L265.971 182.997L268.214 185.988L277.045 178.763L277.561 179.394L268.072 187.157Z" fill="white"/>
</g>
<defs>
<clipPath id="clip0">
<rect width="540" height="407.986" fill="white"/>
</clipPath>
</defs>
</svg>
